<?xml version="1.0" encoding="UTF-8" standalone="no"?>
<!DOCTYPE svg PUBLIC "-//W3C//DTD SVG 1.1//EN" "http://www.w3.org/Graphics/SVG/1.1/DTD/svg11.dtd">
<svg width="100%" height="100%" viewBox="0 0 446 329" version="1.1" xmlns="http://www.w3.org/2000/svg" xmlns:xlink="http://www.w3.org/1999/xlink" xml:space="preserve" xmlns:serif="http://www.serif.com/" style="fill-rule:evenodd;clip-rule:evenodd;stroke-linecap:square;stroke-linejoin:bevel;">
    <g id="Layer-1" serif:id="Layer 1" transform="matrix(2.83465,0,0,2.83465,0,2.01414e-14)">
        <rect id="rect1" x="71.919" y="42.143" width="25.259" height="14.544" style="fill:rgb(241,158,156);stroke:white;stroke-width:0.11px;"/>
        <rect id="rect1-2" x="97.178" y="42.143" width="25.259" height="14.544" style="fill:rgb(187,39,26);stroke:white;stroke-width:0.11px;"/>
        <rect id="rect1-3" x="71.919" y="56.688" width="25.259" height="14.544" style="fill:rgb(184,184,148);stroke:white;stroke-width:0.11px;"/>
        <rect id="rect1-3-3" x="71.922" y="93.674" width="25.256" height="16.114" style="fill:rgb(224,224,210);stroke:white;stroke-width:0.11px;"/>
        <rect id="rect1-2-7" x="97.178" y="56.688" width="25.259" height="14.544" style="fill:rgb(107,107,71);stroke:white;stroke-width:0.11px;"/>
        <rect id="rect1-2-7-5" x="97.178" y="71.232" width="25.259" height="14.544" style="fill:rgb(80,127,186);stroke:white;stroke-width:0.11px;"/>
        <g transform="matrix(0.264583,0,0,0.264583,44.3888,32.9766)">
            <g id="text1">
                <g transform="matrix(32,0,0,32,0,0)">
                    <path d="M0.414,-0.08L0.292,-0.114L0.292,-0.511C0.305,-0.514 0.315,-0.515 0.324,-0.515C0.355,-0.515 0.379,-0.503 0.395,-0.479C0.411,-0.456 0.419,-0.426 0.419,-0.391C0.419,-0.361 0.41,-0.338 0.392,-0.32C0.374,-0.303 0.348,-0.294 0.313,-0.294L0.302,-0.294L0.318,-0.209C0.333,-0.207 0.346,-0.207 0.357,-0.207C0.405,-0.207 0.447,-0.216 0.484,-0.235C0.521,-0.254 0.549,-0.279 0.57,-0.312C0.59,-0.344 0.6,-0.38 0.6,-0.419C0.6,-0.491 0.577,-0.543 0.531,-0.573C0.485,-0.603 0.419,-0.619 0.333,-0.619C0.277,-0.619 0.227,-0.617 0.185,-0.612C0.143,-0.608 0.092,-0.601 0.032,-0.591L0.026,-0.514L0.119,-0.492L0.119,-0.106L0.027,-0.067L0.017,-0L0.402,-0L0.414,-0.08Z" style="fill-rule:nonzero;stroke:white;stroke-width:0.02px;"/>
                </g>
                <g transform="matrix(32,0,0,32,19.7656,0)">
                    <path d="M0.006,-0.107C0.006,-0.086 0.011,-0.066 0.02,-0.048C0.03,-0.03 0.044,-0.016 0.062,-0.006C0.08,0.005 0.101,0.01 0.126,0.01C0.145,0.01 0.163,0.006 0.18,-0.001C0.198,-0.009 0.212,-0.019 0.224,-0.031C0.235,-0.043 0.242,-0.055 0.245,-0.068L0.251,-0.068L0.252,-0.062C0.254,-0.038 0.262,-0.02 0.278,-0.007C0.293,0.005 0.315,0.012 0.342,0.012C0.37,0.012 0.398,0.002 0.428,-0.017L0.44,-0.094L0.427,-0.098C0.417,-0.101 0.409,-0.105 0.402,-0.111C0.396,-0.117 0.392,-0.125 0.388,-0.137C0.385,-0.148 0.384,-0.163 0.384,-0.183L0.384,-0.313C0.384,-0.365 0.368,-0.402 0.338,-0.424C0.307,-0.447 0.267,-0.458 0.218,-0.458C0.163,-0.458 0.118,-0.449 0.082,-0.432C0.047,-0.414 0.029,-0.387 0.029,-0.348C0.029,-0.336 0.033,-0.324 0.04,-0.313C0.047,-0.302 0.058,-0.293 0.072,-0.286C0.085,-0.278 0.102,-0.273 0.121,-0.271C0.129,-0.292 0.141,-0.31 0.155,-0.326C0.17,-0.341 0.183,-0.349 0.197,-0.349C0.207,-0.349 0.216,-0.345 0.223,-0.338C0.23,-0.33 0.233,-0.321 0.233,-0.311L0.233,-0.263C0.191,-0.264 0.153,-0.26 0.119,-0.249C0.085,-0.239 0.057,-0.222 0.037,-0.198C0.016,-0.174 0.006,-0.144 0.006,-0.107ZM0.155,-0.149C0.155,-0.161 0.159,-0.17 0.168,-0.178C0.178,-0.186 0.188,-0.192 0.201,-0.196C0.213,-0.2 0.224,-0.202 0.233,-0.202L0.233,-0.124C0.22,-0.115 0.207,-0.11 0.193,-0.11C0.18,-0.11 0.171,-0.113 0.164,-0.119C0.158,-0.126 0.155,-0.136 0.155,-0.149Z" style="fill-rule:nonzero;stroke:white;stroke-width:0.02px;"/>
                </g>
                <g transform="matrix(32,0,0,32,33.9375,0)">
                    <path d="M0.002,-0L0.313,-0L0.322,-0.082L0.213,-0.113L0.213,-0.259C0.235,-0.269 0.265,-0.273 0.304,-0.273C0.326,-0.273 0.353,-0.27 0.383,-0.262C0.397,-0.296 0.404,-0.33 0.404,-0.362C0.404,-0.389 0.398,-0.412 0.386,-0.429C0.373,-0.446 0.353,-0.454 0.324,-0.454C0.302,-0.454 0.28,-0.442 0.258,-0.419C0.236,-0.396 0.218,-0.363 0.204,-0.321L0.195,-0.321L0.195,-0.429L0.176,-0.448L0.017,-0.434L0.003,-0.367L0.062,-0.329L0.064,-0.105L0.013,-0.07L0.002,-0Z" style="fill-rule:nonzero;stroke:white;stroke-width:0.02px;"/>
                </g>
                <g transform="matrix(32,0,0,32,47.2031,0)">
                    <path d="M0.199,0.016C0.244,0.016 0.281,0.005 0.309,-0.015C0.337,-0.036 0.357,-0.065 0.369,-0.101L0.315,-0.162C0.308,-0.149 0.297,-0.139 0.283,-0.132C0.27,-0.124 0.255,-0.121 0.24,-0.121C0.212,-0.121 0.193,-0.135 0.181,-0.164C0.17,-0.192 0.165,-0.227 0.165,-0.268C0.165,-0.304 0.174,-0.322 0.193,-0.322C0.208,-0.322 0.224,-0.316 0.24,-0.306C0.256,-0.295 0.271,-0.28 0.285,-0.261C0.298,-0.264 0.309,-0.271 0.319,-0.281C0.33,-0.292 0.338,-0.306 0.344,-0.321C0.351,-0.337 0.354,-0.353 0.354,-0.369C0.354,-0.397 0.344,-0.42 0.323,-0.437C0.303,-0.454 0.276,-0.462 0.241,-0.462C0.207,-0.462 0.172,-0.45 0.136,-0.426C0.101,-0.402 0.072,-0.369 0.049,-0.327C0.026,-0.285 0.014,-0.239 0.014,-0.188C0.014,-0.052 0.076,0.016 0.199,0.016Z" style="fill-rule:nonzero;stroke:white;stroke-width:0.02px;"/>
                </g>
                <g transform="matrix(32,0,0,32,59.3438,0)">
                    <path d="M0.218,0.015C0.252,0.015 0.28,0.01 0.303,0C0.327,-0.01 0.346,-0.022 0.36,-0.038C0.375,-0.053 0.389,-0.072 0.402,-0.094L0.354,-0.154C0.342,-0.143 0.326,-0.134 0.307,-0.127C0.288,-0.12 0.269,-0.117 0.252,-0.117C0.226,-0.117 0.207,-0.122 0.194,-0.132C0.182,-0.143 0.175,-0.158 0.174,-0.179L0.378,-0.186C0.38,-0.195 0.382,-0.212 0.385,-0.236C0.387,-0.26 0.389,-0.275 0.389,-0.283C0.389,-0.318 0.383,-0.349 0.371,-0.376C0.36,-0.404 0.343,-0.425 0.32,-0.441C0.298,-0.456 0.271,-0.464 0.239,-0.464C0.196,-0.464 0.157,-0.453 0.123,-0.431C0.089,-0.41 0.062,-0.38 0.043,-0.341C0.024,-0.302 0.014,-0.259 0.014,-0.21C0.014,-0.161 0.023,-0.12 0.04,-0.086C0.057,-0.053 0.081,-0.027 0.112,-0.01C0.142,0.007 0.178,0.015 0.218,0.015ZM0.204,-0.364C0.215,-0.364 0.224,-0.357 0.23,-0.342C0.236,-0.328 0.239,-0.309 0.239,-0.284C0.239,-0.275 0.239,-0.265 0.238,-0.254L0.172,-0.243C0.17,-0.263 0.169,-0.278 0.169,-0.29C0.169,-0.316 0.172,-0.334 0.178,-0.346C0.184,-0.358 0.192,-0.364 0.204,-0.364Z" style="fill-rule:nonzero;stroke:white;stroke-width:0.02px;"/>
                </g>
                <g transform="matrix(32,0,0,32,72.4531,0)">
                    <path d="M0.198,-0.638L0.019,-0.625L0.005,-0.555L0.064,-0.515L0.064,-0.105L0.013,-0.07L0.002,-0L0.254,-0L0.266,-0.076L0.217,-0.104L0.217,-0.616L0.198,-0.638Z" style="fill-rule:nonzero;stroke:white;stroke-width:0.02px;"/>
                </g>
                <g transform="matrix(32,0,0,32,80.9844,0)">
                    <path d="M0.169,0.016C0.204,0.016 0.236,0.009 0.264,-0.004C0.291,-0.018 0.313,-0.035 0.328,-0.057C0.343,-0.079 0.351,-0.103 0.351,-0.127C0.351,-0.151 0.344,-0.173 0.331,-0.193C0.317,-0.213 0.301,-0.23 0.282,-0.244C0.264,-0.258 0.24,-0.274 0.212,-0.292C0.188,-0.307 0.17,-0.319 0.16,-0.328C0.149,-0.337 0.144,-0.346 0.144,-0.354C0.144,-0.358 0.145,-0.362 0.148,-0.364C0.151,-0.366 0.156,-0.368 0.161,-0.368C0.179,-0.368 0.196,-0.359 0.212,-0.342C0.229,-0.325 0.243,-0.305 0.257,-0.28C0.27,-0.281 0.283,-0.285 0.296,-0.292C0.309,-0.299 0.32,-0.309 0.329,-0.32C0.338,-0.332 0.343,-0.345 0.343,-0.358C0.343,-0.394 0.33,-0.42 0.305,-0.437C0.28,-0.454 0.249,-0.463 0.212,-0.463C0.176,-0.463 0.143,-0.456 0.113,-0.443C0.084,-0.43 0.06,-0.411 0.043,-0.388C0.027,-0.365 0.018,-0.339 0.018,-0.31C0.018,-0.286 0.025,-0.264 0.038,-0.244C0.051,-0.225 0.067,-0.208 0.085,-0.194C0.104,-0.18 0.127,-0.164 0.154,-0.147C0.179,-0.131 0.197,-0.119 0.208,-0.11C0.218,-0.102 0.224,-0.093 0.224,-0.083C0.224,-0.078 0.222,-0.074 0.219,-0.071C0.215,-0.067 0.21,-0.065 0.203,-0.065C0.179,-0.065 0.159,-0.075 0.141,-0.093C0.124,-0.112 0.106,-0.139 0.089,-0.174C0.075,-0.174 0.062,-0.17 0.049,-0.162C0.037,-0.154 0.027,-0.144 0.02,-0.132C0.012,-0.119 0.008,-0.106 0.008,-0.092C0.008,-0.07 0.015,-0.051 0.029,-0.035C0.042,-0.018 0.062,-0.006 0.086,0.003C0.11,0.012 0.138,0.016 0.169,0.016Z" style="fill-rule:nonzero;stroke:white;stroke-width:0.02px;"/>
                </g>
            </g>
        </g>
        <g transform="matrix(0.264583,0,0,0.264583,10.1748,103.647)">
            <g id="text1-3">
                <g transform="matrix(32,0,0,32,0,0)">
                    <path d="M0.56,-0L0.583,-0.21L0.501,-0.221L0.417,-0.087L0.285,-0.098L0.285,-0.488L0.38,-0.536L0.391,-0.608L0.028,-0.608L0.019,-0.536L0.103,-0.487L0.103,-0.106L0.024,-0.067L0.017,-0L0.56,-0Z" style="fill-rule:nonzero;stroke:white;stroke-width:0.02px;"/>
                </g>
                <g transform="matrix(32,0,0,32,19.1875,0)">
                    <path d="M0.218,0.015C0.252,0.015 0.28,0.01 0.303,0C0.327,-0.01 0.346,-0.022 0.36,-0.038C0.375,-0.053 0.389,-0.072 0.402,-0.094L0.354,-0.154C0.342,-0.143 0.326,-0.134 0.307,-0.127C0.288,-0.12 0.269,-0.117 0.252,-0.117C0.226,-0.117 0.207,-0.122 0.194,-0.132C0.182,-0.143 0.175,-0.158 0.174,-0.179L0.378,-0.186C0.38,-0.195 0.382,-0.212 0.385,-0.236C0.387,-0.26 0.389,-0.275 0.389,-0.283C0.389,-0.318 0.383,-0.349 0.371,-0.376C0.36,-0.404 0.343,-0.425 0.32,-0.441C0.298,-0.456 0.271,-0.464 0.239,-0.464C0.196,-0.464 0.157,-0.453 0.123,-0.431C0.089,-0.41 0.062,-0.38 0.043,-0.341C0.024,-0.302 0.014,-0.259 0.014,-0.21C0.014,-0.161 0.023,-0.12 0.04,-0.086C0.057,-0.053 0.081,-0.027 0.112,-0.01C0.142,0.007 0.178,0.015 0.218,0.015ZM0.204,-0.364C0.215,-0.364 0.224,-0.357 0.23,-0.342C0.236,-0.328 0.239,-0.309 0.239,-0.284C0.239,-0.275 0.239,-0.265 0.238,-0.254L0.172,-0.243C0.17,-0.263 0.169,-0.278 0.169,-0.29C0.169,-0.316 0.172,-0.334 0.178,-0.346C0.184,-0.358 0.192,-0.364 0.204,-0.364Z" style="fill-rule:nonzero;stroke:white;stroke-width:0.02px;"/>
                </g>
                <g transform="matrix(32,0,0,32,32.2969,0)">
                    <path d="M0.291,-0.108C0.393,-0.108 0.444,-0.067 0.444,0.017C0.444,0.051 0.433,0.081 0.412,0.107C0.391,0.133 0.359,0.153 0.318,0.167C0.277,0.181 0.228,0.188 0.17,0.188C0.111,0.188 0.065,0.179 0.032,0.162C-0.001,0.144 -0.018,0.118 -0.018,0.083C-0.018,0.061 -0.011,0.043 0.003,0.027C0.017,0.012 0.036,0.003 0.059,-0.001L0.059,-0.009C0.048,-0.013 0.038,-0.02 0.03,-0.032C0.021,-0.044 0.017,-0.055 0.017,-0.067C0.017,-0.079 0.021,-0.09 0.031,-0.101C0.04,-0.111 0.052,-0.12 0.067,-0.127C0.081,-0.134 0.097,-0.138 0.113,-0.14L0.113,-0.149C0.09,-0.159 0.069,-0.175 0.052,-0.196C0.036,-0.217 0.027,-0.249 0.027,-0.29C0.027,-0.319 0.036,-0.346 0.052,-0.373C0.069,-0.399 0.093,-0.42 0.124,-0.437C0.155,-0.453 0.191,-0.461 0.232,-0.461C0.255,-0.461 0.276,-0.458 0.296,-0.453C0.298,-0.463 0.299,-0.483 0.299,-0.511C0.299,-0.532 0.296,-0.553 0.29,-0.575C0.297,-0.579 0.307,-0.582 0.32,-0.585C0.333,-0.587 0.345,-0.589 0.355,-0.589C0.374,-0.589 0.389,-0.583 0.401,-0.571C0.412,-0.56 0.418,-0.544 0.418,-0.526C0.418,-0.503 0.41,-0.484 0.394,-0.468C0.378,-0.451 0.36,-0.44 0.339,-0.434L0.339,-0.43C0.363,-0.417 0.382,-0.398 0.396,-0.375C0.409,-0.352 0.416,-0.326 0.416,-0.296C0.416,-0.242 0.399,-0.201 0.364,-0.174C0.329,-0.146 0.281,-0.132 0.218,-0.132C0.209,-0.132 0.202,-0.132 0.198,-0.132C0.196,-0.127 0.195,-0.123 0.195,-0.121C0.195,-0.116 0.197,-0.113 0.201,-0.111C0.205,-0.109 0.211,-0.108 0.22,-0.108L0.291,-0.108ZM0.221,-0.359C0.206,-0.359 0.194,-0.351 0.186,-0.336C0.178,-0.321 0.174,-0.301 0.174,-0.276C0.174,-0.257 0.178,-0.241 0.187,-0.228C0.196,-0.215 0.208,-0.208 0.224,-0.208C0.255,-0.208 0.271,-0.233 0.271,-0.282C0.271,-0.298 0.269,-0.311 0.264,-0.323C0.259,-0.335 0.253,-0.343 0.246,-0.35C0.238,-0.356 0.23,-0.359 0.221,-0.359ZM0.23,0.091C0.251,0.091 0.268,0.087 0.28,0.079C0.293,0.071 0.299,0.062 0.299,0.05C0.299,0.033 0.294,0.02 0.284,0.012C0.274,0.004 0.259,-0 0.237,-0L0.141,-0C0.135,0.013 0.132,0.024 0.132,0.033C0.132,0.051 0.14,0.066 0.156,0.076C0.173,0.086 0.197,0.091 0.23,0.091Z" style="fill-rule:nonzero;stroke:white;stroke-width:0.02px;"/>
                </g>
                <g transform="matrix(32,0,0,32,46.5781,0)">
                    <path d="M0.131,0.013C0.169,0.013 0.197,0.006 0.213,-0.008C0.23,-0.022 0.238,-0.04 0.238,-0.063C0.238,-0.076 0.235,-0.087 0.228,-0.098C0.222,-0.109 0.21,-0.118 0.195,-0.125C0.179,-0.133 0.158,-0.137 0.131,-0.137C0.107,-0.137 0.087,-0.133 0.071,-0.125C0.056,-0.118 0.045,-0.108 0.039,-0.097C0.032,-0.086 0.029,-0.074 0.029,-0.062C0.029,-0.012 0.063,0.013 0.131,0.013Z" style="fill-rule:nonzero;stroke:white;stroke-width:0.02px;"/>
                </g>
                <g transform="matrix(32,0,0,32,62.1406,0)">
                    <path d="M0.02,-0.392L0.103,-0.379L0.145,-0.523L0.223,-0.523L0.223,-0.102L0.132,-0.068L0.125,-0L0.495,-0L0.503,-0.075L0.399,-0.102L0.399,-0.523L0.479,-0.523L0.511,-0.399L0.6,-0.384L0.616,-0.607L0.018,-0.607L0.02,-0.392Z" style="fill-rule:nonzero;stroke:white;stroke-width:0.02px;"/>
                </g>
                <g transform="matrix(32,0,0,32,82.4062,0)">
                    <path d="M0.002,-0L0.313,-0L0.322,-0.082L0.213,-0.113L0.213,-0.259C0.235,-0.269 0.265,-0.273 0.304,-0.273C0.326,-0.273 0.353,-0.27 0.383,-0.262C0.397,-0.296 0.404,-0.33 0.404,-0.362C0.404,-0.389 0.398,-0.412 0.386,-0.429C0.373,-0.446 0.353,-0.454 0.324,-0.454C0.302,-0.454 0.28,-0.442 0.258,-0.419C0.236,-0.396 0.218,-0.363 0.204,-0.321L0.195,-0.321L0.195,-0.429L0.176,-0.448L0.017,-0.434L0.003,-0.367L0.062,-0.329L0.064,-0.105L0.013,-0.07L0.002,-0Z" style="fill-rule:nonzero;stroke:white;stroke-width:0.02px;"/>
                </g>
                <g transform="matrix(32,0,0,32,95.6719,0)">
                    <path d="M0.138,-0.478C0.174,-0.478 0.201,-0.485 0.218,-0.5C0.236,-0.515 0.245,-0.533 0.245,-0.555C0.245,-0.569 0.241,-0.581 0.233,-0.593C0.225,-0.604 0.213,-0.613 0.197,-0.62C0.181,-0.627 0.162,-0.63 0.139,-0.63C0.115,-0.63 0.094,-0.627 0.077,-0.62C0.06,-0.614 0.047,-0.605 0.039,-0.594C0.03,-0.582 0.026,-0.57 0.026,-0.556C0.026,-0.533 0.035,-0.514 0.052,-0.499C0.07,-0.485 0.098,-0.478 0.138,-0.478ZM0.198,-0.448L0.019,-0.435L0.005,-0.364L0.064,-0.325L0.064,-0.105L0.013,-0.07L0.002,-0L0.254,-0L0.266,-0.076L0.217,-0.104L0.217,-0.426L0.198,-0.448Z" style="fill-rule:nonzero;stroke:white;stroke-width:0.02px;"/>
                </g>
                <g transform="matrix(32,0,0,32,104.203,0)">
                    <path d="M0.189,-0.453L0.189,-0.615L0.17,-0.637L0.003,-0.624L-0.011,-0.553L0.048,-0.514L0.048,-0.004C0.097,0.008 0.146,0.015 0.195,0.015C0.251,0.015 0.3,0.004 0.342,-0.016C0.384,-0.036 0.417,-0.066 0.44,-0.104C0.463,-0.143 0.474,-0.189 0.474,-0.243C0.474,-0.285 0.468,-0.323 0.456,-0.355C0.443,-0.388 0.425,-0.413 0.402,-0.432C0.379,-0.45 0.352,-0.459 0.322,-0.459C0.294,-0.459 0.268,-0.451 0.243,-0.437C0.219,-0.422 0.199,-0.402 0.184,-0.376L0.177,-0.376L0.189,-0.453ZM0.203,-0.307C0.215,-0.315 0.225,-0.321 0.233,-0.325C0.241,-0.328 0.25,-0.33 0.26,-0.33C0.28,-0.33 0.295,-0.319 0.304,-0.298C0.314,-0.277 0.319,-0.247 0.319,-0.208C0.319,-0.169 0.313,-0.14 0.3,-0.122C0.287,-0.104 0.27,-0.095 0.249,-0.095C0.234,-0.095 0.219,-0.1 0.203,-0.11L0.203,-0.307Z" style="fill-rule:nonzero;stroke:white;stroke-width:0.02px;"/>
                </g>
                <g transform="matrix(32,0,0,32,120.344,0)">
                    <path d="M0.006,-0.107C0.006,-0.086 0.011,-0.066 0.02,-0.048C0.03,-0.03 0.044,-0.016 0.062,-0.006C0.08,0.005 0.101,0.01 0.126,0.01C0.145,0.01 0.163,0.006 0.18,-0.001C0.198,-0.009 0.212,-0.019 0.224,-0.031C0.235,-0.043 0.242,-0.055 0.245,-0.068L0.251,-0.068L0.252,-0.062C0.254,-0.038 0.262,-0.02 0.278,-0.007C0.293,0.005 0.315,0.012 0.342,0.012C0.37,0.012 0.398,0.002 0.428,-0.017L0.44,-0.094L0.427,-0.098C0.417,-0.101 0.409,-0.105 0.402,-0.111C0.396,-0.117 0.392,-0.125 0.388,-0.137C0.385,-0.148 0.384,-0.163 0.384,-0.183L0.384,-0.313C0.384,-0.365 0.368,-0.402 0.338,-0.424C0.307,-0.447 0.267,-0.458 0.218,-0.458C0.163,-0.458 0.118,-0.449 0.082,-0.432C0.047,-0.414 0.029,-0.387 0.029,-0.348C0.029,-0.336 0.033,-0.324 0.04,-0.313C0.047,-0.302 0.058,-0.293 0.072,-0.286C0.085,-0.278 0.102,-0.273 0.121,-0.271C0.129,-0.292 0.141,-0.31 0.155,-0.326C0.17,-0.341 0.183,-0.349 0.197,-0.349C0.207,-0.349 0.216,-0.345 0.223,-0.338C0.23,-0.33 0.233,-0.321 0.233,-0.311L0.233,-0.263C0.191,-0.264 0.153,-0.26 0.119,-0.249C0.085,-0.239 0.057,-0.222 0.037,-0.198C0.016,-0.174 0.006,-0.144 0.006,-0.107ZM0.155,-0.149C0.155,-0.161 0.159,-0.17 0.168,-0.178C0.178,-0.186 0.188,-0.192 0.201,-0.196C0.213,-0.2 0.224,-0.202 0.233,-0.202L0.233,-0.124C0.22,-0.115 0.207,-0.11 0.193,-0.11C0.18,-0.11 0.171,-0.113 0.164,-0.119C0.158,-0.126 0.155,-0.136 0.155,-0.149Z" style="fill-rule:nonzero;stroke:white;stroke-width:0.02px;"/>
                </g>
                <g transform="matrix(32,0,0,32,134.516,0)">
                    <path d="M0.198,-0.638L0.019,-0.625L0.005,-0.555L0.064,-0.515L0.064,-0.105L0.013,-0.07L0.002,-0L0.254,-0L0.266,-0.076L0.217,-0.104L0.217,-0.616L0.198,-0.638Z" style="fill-rule:nonzero;stroke:white;stroke-width:0.02px;"/>
                </g>
                <g transform="matrix(32,0,0,32,150.078,0)">
                    <path d="M0.56,-0L0.583,-0.21L0.501,-0.221L0.417,-0.087L0.285,-0.098L0.285,-0.488L0.38,-0.536L0.391,-0.608L0.028,-0.608L0.019,-0.536L0.103,-0.487L0.103,-0.106L0.024,-0.067L0.017,-0L0.56,-0Z" style="fill-rule:nonzero;stroke:white;stroke-width:0.02px;"/>
                </g>
                <g transform="matrix(32,0,0,32,169.266,0)">
                    <path d="M0.006,-0.107C0.006,-0.086 0.011,-0.066 0.02,-0.048C0.03,-0.03 0.044,-0.016 0.062,-0.006C0.08,0.005 0.101,0.01 0.126,0.01C0.145,0.01 0.163,0.006 0.18,-0.001C0.198,-0.009 0.212,-0.019 0.224,-0.031C0.235,-0.043 0.242,-0.055 0.245,-0.068L0.251,-0.068L0.252,-0.062C0.254,-0.038 0.262,-0.02 0.278,-0.007C0.293,0.005 0.315,0.012 0.342,0.012C0.37,0.012 0.398,0.002 0.428,-0.017L0.44,-0.094L0.427,-0.098C0.417,-0.101 0.409,-0.105 0.402,-0.111C0.396,-0.117 0.392,-0.125 0.388,-0.137C0.385,-0.148 0.384,-0.163 0.384,-0.183L0.384,-0.313C0.384,-0.365 0.368,-0.402 0.338,-0.424C0.307,-0.447 0.267,-0.458 0.218,-0.458C0.163,-0.458 0.118,-0.449 0.082,-0.432C0.047,-0.414 0.029,-0.387 0.029,-0.348C0.029,-0.336 0.033,-0.324 0.04,-0.313C0.047,-0.302 0.058,-0.293 0.072,-0.286C0.085,-0.278 0.102,-0.273 0.121,-0.271C0.129,-0.292 0.141,-0.31 0.155,-0.326C0.17,-0.341 0.183,-0.349 0.197,-0.349C0.207,-0.349 0.216,-0.345 0.223,-0.338C0.23,-0.33 0.233,-0.321 0.233,-0.311L0.233,-0.263C0.191,-0.264 0.153,-0.26 0.119,-0.249C0.085,-0.239 0.057,-0.222 0.037,-0.198C0.016,-0.174 0.006,-0.144 0.006,-0.107ZM0.155,-0.149C0.155,-0.161 0.159,-0.17 0.168,-0.178C0.178,-0.186 0.188,-0.192 0.201,-0.196C0.213,-0.2 0.224,-0.202 0.233,-0.202L0.233,-0.124C0.22,-0.115 0.207,-0.11 0.193,-0.11C0.18,-0.11 0.171,-0.113 0.164,-0.119C0.158,-0.126 0.155,-0.136 0.155,-0.149Z" style="fill-rule:nonzero;stroke:white;stroke-width:0.02px;"/>
                </g>
                <g transform="matrix(32,0,0,32,183.438,0)">
                    <path d="M0.272,-0.313C0.29,-0.313 0.304,-0.307 0.313,-0.297C0.321,-0.286 0.326,-0.268 0.326,-0.241L0.326,-0.092L0.324,-0.07L0.317,-0L0.518,-0L0.529,-0.076L0.48,-0.104L0.48,-0.313C0.48,-0.361 0.47,-0.397 0.449,-0.42C0.428,-0.442 0.398,-0.454 0.36,-0.454C0.335,-0.454 0.311,-0.447 0.289,-0.434C0.267,-0.421 0.244,-0.402 0.219,-0.376L0.212,-0.376L0.212,-0.429L0.193,-0.448L0.02,-0.434L0.006,-0.367L0.064,-0.327L0.064,-0.105L0.013,-0.07L0.002,-0L0.266,-0L0.279,-0.074L0.219,-0.105L0.219,-0.296C0.238,-0.307 0.256,-0.313 0.272,-0.313Z" style="fill-rule:nonzero;stroke:white;stroke-width:0.02px;"/>
                </g>
                <g transform="matrix(32,0,0,32,200.391,0)">
                    <path d="M0.414,-0.637L0.247,-0.624L0.233,-0.553L0.302,-0.514L0.302,-0.462L0.307,-0.422L0.305,-0.422C0.296,-0.436 0.285,-0.447 0.271,-0.453C0.257,-0.46 0.241,-0.463 0.224,-0.463C0.179,-0.463 0.141,-0.45 0.109,-0.425C0.077,-0.399 0.054,-0.366 0.038,-0.326C0.022,-0.285 0.014,-0.243 0.014,-0.199C0.014,-0.161 0.02,-0.126 0.031,-0.095C0.043,-0.063 0.06,-0.038 0.083,-0.019C0.106,-0 0.134,0.009 0.167,0.009C0.201,0.009 0.229,0.003 0.251,-0.01C0.273,-0.022 0.288,-0.041 0.295,-0.064L0.302,-0.064L0.303,-0.058C0.304,-0.036 0.313,-0.02 0.329,-0.007C0.345,0.005 0.366,0.012 0.393,0.012C0.422,0.012 0.452,0.002 0.484,-0.017L0.496,-0.094L0.482,-0.098C0.471,-0.101 0.462,-0.105 0.456,-0.111C0.449,-0.117 0.444,-0.125 0.44,-0.137C0.436,-0.148 0.435,-0.163 0.435,-0.183L0.433,-0.615L0.414,-0.637ZM0.242,-0.341C0.25,-0.341 0.257,-0.34 0.262,-0.338C0.267,-0.336 0.274,-0.333 0.284,-0.327L0.284,-0.114C0.266,-0.105 0.25,-0.101 0.237,-0.101C0.213,-0.101 0.196,-0.111 0.185,-0.131C0.174,-0.152 0.169,-0.184 0.169,-0.229C0.169,-0.247 0.172,-0.264 0.178,-0.281C0.184,-0.299 0.192,-0.313 0.203,-0.324C0.214,-0.336 0.227,-0.341 0.242,-0.341Z" style="fill-rule:nonzero;stroke:white;stroke-width:0.02px;"/>
                </g>
            </g>
        </g>
        <rect id="rect1-3-3-5" x="71.919" y="71.232" width="25.259" height="14.544" style="fill:rgb(165,190,220);stroke:white;stroke-width:0.11px;"/>
        <g transform="matrix(0.195332,-0.178465,0.178465,0.195332,84.5502,37.3837)">
            <g id="text1-6">
                <g transform="matrix(32,0,0,32,0,0)">
                    <path d="M0.196,0.012C0.234,0.012 0.269,0.004 0.302,-0.011C0.336,-0.027 0.363,-0.049 0.383,-0.077C0.403,-0.105 0.414,-0.138 0.414,-0.174C0.414,-0.2 0.407,-0.223 0.394,-0.242C0.38,-0.261 0.364,-0.278 0.345,-0.291C0.326,-0.304 0.3,-0.319 0.267,-0.336C0.236,-0.353 0.211,-0.368 0.193,-0.38C0.175,-0.392 0.16,-0.407 0.147,-0.424C0.135,-0.442 0.128,-0.462 0.128,-0.486C0.128,-0.516 0.137,-0.54 0.153,-0.555C0.17,-0.571 0.191,-0.579 0.217,-0.579C0.229,-0.579 0.241,-0.576 0.253,-0.571C0.265,-0.566 0.275,-0.56 0.283,-0.552C0.291,-0.545 0.297,-0.538 0.3,-0.532L0.313,-0.439L0.361,-0.433C0.362,-0.447 0.364,-0.47 0.366,-0.501C0.369,-0.532 0.371,-0.556 0.372,-0.571C0.333,-0.603 0.287,-0.62 0.234,-0.62C0.201,-0.62 0.17,-0.613 0.141,-0.599C0.112,-0.585 0.089,-0.566 0.071,-0.54C0.053,-0.514 0.044,-0.483 0.044,-0.447C0.044,-0.417 0.051,-0.39 0.066,-0.368C0.081,-0.345 0.099,-0.327 0.12,-0.312C0.141,-0.298 0.168,-0.281 0.203,-0.263C0.23,-0.248 0.252,-0.236 0.268,-0.225C0.284,-0.215 0.297,-0.202 0.308,-0.188C0.318,-0.174 0.324,-0.158 0.324,-0.14C0.324,-0.117 0.318,-0.098 0.306,-0.083C0.295,-0.068 0.28,-0.056 0.262,-0.049C0.245,-0.041 0.227,-0.038 0.208,-0.038C0.187,-0.038 0.167,-0.042 0.149,-0.052C0.131,-0.061 0.117,-0.073 0.107,-0.086L0.088,-0.178L0.039,-0.185L0.032,-0.045C0.049,-0.029 0.072,-0.015 0.101,-0.004C0.131,0.006 0.162,0.012 0.196,0.012Z" style="fill-rule:nonzero;stroke:white;stroke-width:0.02px;"/>
                </g>
                <g transform="matrix(32,0,0,32,13.4844,0)">
                    <path d="M0.209,0.015C0.241,0.015 0.271,0.009 0.299,-0.003C0.327,-0.014 0.351,-0.03 0.37,-0.051L0.36,-0.077C0.344,-0.068 0.33,-0.062 0.318,-0.058C0.306,-0.054 0.295,-0.052 0.286,-0.051C0.277,-0.05 0.265,-0.05 0.249,-0.05C0.22,-0.05 0.196,-0.058 0.176,-0.074C0.156,-0.091 0.141,-0.112 0.13,-0.138C0.12,-0.163 0.114,-0.19 0.113,-0.217L0.349,-0.22C0.351,-0.229 0.353,-0.24 0.354,-0.253C0.356,-0.266 0.357,-0.276 0.357,-0.284C0.357,-0.317 0.351,-0.345 0.34,-0.368C0.328,-0.392 0.312,-0.409 0.292,-0.421C0.273,-0.433 0.251,-0.439 0.227,-0.439C0.194,-0.439 0.162,-0.43 0.131,-0.411C0.1,-0.393 0.075,-0.366 0.055,-0.331C0.036,-0.296 0.026,-0.256 0.026,-0.209C0.026,-0.162 0.035,-0.121 0.052,-0.087C0.069,-0.054 0.092,-0.028 0.12,-0.011C0.148,0.006 0.178,0.015 0.209,0.015ZM0.203,-0.391C0.248,-0.391 0.27,-0.361 0.27,-0.3C0.27,-0.295 0.27,-0.289 0.269,-0.282C0.269,-0.275 0.268,-0.27 0.267,-0.267L0.114,-0.255C0.115,-0.285 0.121,-0.31 0.13,-0.331C0.139,-0.351 0.15,-0.366 0.163,-0.376C0.176,-0.386 0.189,-0.391 0.203,-0.391Z" style="fill-rule:nonzero;stroke:white;stroke-width:0.02px;"/>
                </g>
                <g transform="matrix(32,0,0,32,26.0156,0)">
                    <path d="M0.238,-0L0.244,-0.039L0.167,-0.057L0.167,-0.623L0.154,-0.634L0.014,-0.624L0.008,-0.586L0.085,-0.56L0.085,-0.057L0.01,-0.039L0.005,-0L0.238,-0Z" style="fill-rule:nonzero;stroke:white;stroke-width:0.02px;"/>
                </g>
                <g transform="matrix(32,0,0,32,33.9844,0)">
                    <path d="M0.209,0.015C0.241,0.015 0.271,0.009 0.299,-0.003C0.327,-0.014 0.351,-0.03 0.37,-0.051L0.36,-0.077C0.344,-0.068 0.33,-0.062 0.318,-0.058C0.306,-0.054 0.295,-0.052 0.286,-0.051C0.277,-0.05 0.265,-0.05 0.249,-0.05C0.22,-0.05 0.196,-0.058 0.176,-0.074C0.156,-0.091 0.141,-0.112 0.13,-0.138C0.12,-0.163 0.114,-0.19 0.113,-0.217L0.349,-0.22C0.351,-0.229 0.353,-0.24 0.354,-0.253C0.356,-0.266 0.357,-0.276 0.357,-0.284C0.357,-0.317 0.351,-0.345 0.34,-0.368C0.328,-0.392 0.312,-0.409 0.292,-0.421C0.273,-0.433 0.251,-0.439 0.227,-0.439C0.194,-0.439 0.162,-0.43 0.131,-0.411C0.1,-0.393 0.075,-0.366 0.055,-0.331C0.036,-0.296 0.026,-0.256 0.026,-0.209C0.026,-0.162 0.035,-0.121 0.052,-0.087C0.069,-0.054 0.092,-0.028 0.12,-0.011C0.148,0.006 0.178,0.015 0.209,0.015ZM0.203,-0.391C0.248,-0.391 0.27,-0.361 0.27,-0.3C0.27,-0.295 0.27,-0.289 0.269,-0.282C0.269,-0.275 0.268,-0.27 0.267,-0.267L0.114,-0.255C0.115,-0.285 0.121,-0.31 0.13,-0.331C0.139,-0.351 0.15,-0.366 0.163,-0.376C0.176,-0.386 0.189,-0.391 0.203,-0.391Z" style="fill-rule:nonzero;stroke:white;stroke-width:0.02px;"/>
                </g>
                <g transform="matrix(32,0,0,32,46.5156,0)">
                    <path d="M0.217,0.015C0.248,0.015 0.277,0.009 0.305,-0.003C0.334,-0.015 0.355,-0.029 0.369,-0.045L0.356,-0.074C0.342,-0.064 0.327,-0.057 0.313,-0.052C0.298,-0.047 0.28,-0.044 0.258,-0.044C0.226,-0.044 0.2,-0.055 0.178,-0.076C0.156,-0.098 0.14,-0.124 0.129,-0.156C0.118,-0.187 0.113,-0.218 0.113,-0.248C0.113,-0.277 0.117,-0.302 0.125,-0.324C0.133,-0.346 0.144,-0.363 0.158,-0.375C0.173,-0.388 0.19,-0.394 0.209,-0.394C0.228,-0.394 0.243,-0.386 0.255,-0.371C0.267,-0.356 0.278,-0.337 0.288,-0.313C0.307,-0.315 0.323,-0.32 0.333,-0.329C0.344,-0.338 0.35,-0.35 0.35,-0.365C0.35,-0.378 0.345,-0.39 0.337,-0.402C0.328,-0.413 0.315,-0.422 0.297,-0.429C0.28,-0.436 0.258,-0.439 0.232,-0.439C0.196,-0.439 0.162,-0.43 0.131,-0.41C0.099,-0.39 0.073,-0.362 0.054,-0.326C0.034,-0.29 0.024,-0.249 0.024,-0.203C0.024,-0.164 0.032,-0.127 0.048,-0.094C0.064,-0.061 0.087,-0.035 0.116,-0.015C0.146,0.005 0.179,0.015 0.217,0.015Z" style="fill-rule:nonzero;stroke:white;stroke-width:0.02px;"/>
                </g>
                <g transform="matrix(32,0,0,32,58.6719,0)">
                    <path d="M0.074,-0.127C0.073,-0.076 0.082,-0.04 0.101,-0.02C0.119,0.001 0.145,0.011 0.178,0.011C0.205,0.011 0.23,0.005 0.253,-0.008C0.276,-0.021 0.295,-0.038 0.31,-0.061L0.3,-0.087C0.3,-0.087 0.296,-0.084 0.288,-0.079C0.281,-0.074 0.272,-0.07 0.261,-0.066C0.251,-0.062 0.24,-0.06 0.229,-0.06C0.212,-0.06 0.198,-0.063 0.188,-0.068C0.178,-0.074 0.17,-0.084 0.165,-0.098C0.16,-0.112 0.158,-0.131 0.158,-0.156L0.159,-0.372L0.294,-0.372L0.298,-0.415L0.16,-0.415L0.16,-0.531L0.134,-0.531C0.117,-0.507 0.097,-0.483 0.076,-0.459C0.054,-0.435 0.034,-0.415 0.014,-0.399L0.014,-0.373L0.076,-0.373L0.074,-0.127Z" style="fill-rule:nonzero;stroke:white;stroke-width:0.02px;"/>
                </g>
                <g transform="matrix(32,0,0,32,68.8125,0)">
                    <path d="M0.209,0.015C0.241,0.015 0.271,0.009 0.299,-0.003C0.327,-0.014 0.351,-0.03 0.37,-0.051L0.36,-0.077C0.344,-0.068 0.33,-0.062 0.318,-0.058C0.306,-0.054 0.295,-0.052 0.286,-0.051C0.277,-0.05 0.265,-0.05 0.249,-0.05C0.22,-0.05 0.196,-0.058 0.176,-0.074C0.156,-0.091 0.141,-0.112 0.13,-0.138C0.12,-0.163 0.114,-0.19 0.113,-0.217L0.349,-0.22C0.351,-0.229 0.353,-0.24 0.354,-0.253C0.356,-0.266 0.357,-0.276 0.357,-0.284C0.357,-0.317 0.351,-0.345 0.34,-0.368C0.328,-0.392 0.312,-0.409 0.292,-0.421C0.273,-0.433 0.251,-0.439 0.227,-0.439C0.194,-0.439 0.162,-0.43 0.131,-0.411C0.1,-0.393 0.075,-0.366 0.055,-0.331C0.036,-0.296 0.026,-0.256 0.026,-0.209C0.026,-0.162 0.035,-0.121 0.052,-0.087C0.069,-0.054 0.092,-0.028 0.12,-0.011C0.148,0.006 0.178,0.015 0.209,0.015ZM0.203,-0.391C0.248,-0.391 0.27,-0.361 0.27,-0.3C0.27,-0.295 0.27,-0.289 0.269,-0.282C0.269,-0.275 0.268,-0.27 0.267,-0.267L0.114,-0.255C0.115,-0.285 0.121,-0.31 0.13,-0.331C0.139,-0.351 0.15,-0.366 0.163,-0.376C0.176,-0.386 0.189,-0.391 0.203,-0.391Z" style="fill-rule:nonzero;stroke:white;stroke-width:0.02px;"/>
                </g>
                <g transform="matrix(32,0,0,32,81.3438,0)">
                    <path d="M0.186,0.01C0.216,0.01 0.243,0.003 0.264,-0.01C0.286,-0.024 0.305,-0.042 0.321,-0.064L0.325,-0.064L0.325,-0.061C0.325,-0.039 0.331,-0.022 0.344,-0.009C0.357,0.005 0.375,0.011 0.398,0.011C0.413,0.011 0.425,0.011 0.434,0.01C0.443,0.008 0.455,0.006 0.47,0.002L0.475,-0.039L0.453,-0.043C0.439,-0.047 0.429,-0.05 0.422,-0.052C0.415,-0.055 0.41,-0.061 0.406,-0.069C0.402,-0.077 0.4,-0.089 0.4,-0.105L0.4,-0.621L0.39,-0.632L0.254,-0.621L0.247,-0.584L0.321,-0.557L0.321,-0.48L0.327,-0.418L0.324,-0.418C0.316,-0.424 0.304,-0.429 0.288,-0.433C0.272,-0.437 0.256,-0.439 0.24,-0.439C0.206,-0.439 0.172,-0.429 0.139,-0.407C0.106,-0.386 0.079,-0.356 0.058,-0.319C0.037,-0.281 0.026,-0.24 0.026,-0.195C0.026,-0.152 0.033,-0.114 0.048,-0.083C0.062,-0.053 0.081,-0.029 0.105,-0.013C0.129,0.002 0.156,0.01 0.186,0.01ZM0.216,-0.392C0.234,-0.392 0.252,-0.386 0.272,-0.374C0.292,-0.361 0.308,-0.345 0.321,-0.325L0.321,-0.096C0.311,-0.085 0.297,-0.075 0.278,-0.065C0.258,-0.056 0.239,-0.051 0.22,-0.051C0.199,-0.051 0.181,-0.058 0.165,-0.071C0.148,-0.084 0.135,-0.104 0.126,-0.13C0.117,-0.156 0.112,-0.188 0.112,-0.226C0.112,-0.276 0.121,-0.316 0.137,-0.346C0.154,-0.377 0.18,-0.392 0.216,-0.392Z" style="fill-rule:nonzero;stroke:white;stroke-width:0.02px;"/>
                </g>
                <g transform="matrix(32,0,0,32,101.531,0)">
                    <path d="M0.057,-0.55L0.229,-0.246L0.229,-0.059L0.156,-0.036L0.151,-0L0.398,-0L0.403,-0.039L0.324,-0.056L0.324,-0.258L0.492,-0.552L0.553,-0.57L0.558,-0.607L0.341,-0.607L0.336,-0.57L0.425,-0.55L0.296,-0.313L0.161,-0.552L0.238,-0.57L0.244,-0.607L-0.004,-0.607L-0.01,-0.57L0.057,-0.55Z" style="fill-rule:nonzero;stroke:white;stroke-width:0.02px;"/>
                </g>
                <g transform="matrix(32,0,0,32,120.438,0)">
                    <path d="M0.209,0.015C0.241,0.015 0.271,0.009 0.299,-0.003C0.327,-0.014 0.351,-0.03 0.37,-0.051L0.36,-0.077C0.344,-0.068 0.33,-0.062 0.318,-0.058C0.306,-0.054 0.295,-0.052 0.286,-0.051C0.277,-0.05 0.265,-0.05 0.249,-0.05C0.22,-0.05 0.196,-0.058 0.176,-0.074C0.156,-0.091 0.141,-0.112 0.13,-0.138C0.12,-0.163 0.114,-0.19 0.113,-0.217L0.349,-0.22C0.351,-0.229 0.353,-0.24 0.354,-0.253C0.356,-0.266 0.357,-0.276 0.357,-0.284C0.357,-0.317 0.351,-0.345 0.34,-0.368C0.328,-0.392 0.312,-0.409 0.292,-0.421C0.273,-0.433 0.251,-0.439 0.227,-0.439C0.194,-0.439 0.162,-0.43 0.131,-0.411C0.1,-0.393 0.075,-0.366 0.055,-0.331C0.036,-0.296 0.026,-0.256 0.026,-0.209C0.026,-0.162 0.035,-0.121 0.052,-0.087C0.069,-0.054 0.092,-0.028 0.12,-0.011C0.148,0.006 0.178,0.015 0.209,0.015ZM0.203,-0.391C0.248,-0.391 0.27,-0.361 0.27,-0.3C0.27,-0.295 0.27,-0.289 0.269,-0.282C0.269,-0.275 0.268,-0.27 0.267,-0.267L0.114,-0.255C0.115,-0.285 0.121,-0.31 0.13,-0.331C0.139,-0.351 0.15,-0.366 0.163,-0.376C0.176,-0.386 0.189,-0.391 0.203,-0.391Z" style="fill-rule:nonzero;stroke:white;stroke-width:0.02px;"/>
                </g>
                <g transform="matrix(32,0,0,32,132.969,0)">
                    <path d="M0.119,0.012C0.154,0.012 0.183,0.004 0.205,-0.012C0.227,-0.029 0.243,-0.046 0.252,-0.064L0.258,-0.064L0.258,-0.057C0.258,-0.046 0.26,-0.036 0.265,-0.026C0.27,-0.016 0.279,-0.007 0.29,-0.001C0.301,0.006 0.316,0.009 0.333,0.009C0.347,0.009 0.362,0.007 0.377,0.003C0.388,0.001 0.395,0 0.4,-0L0.406,-0.042L0.382,-0.047C0.367,-0.049 0.355,-0.053 0.347,-0.057C0.34,-0.062 0.334,-0.068 0.332,-0.076C0.329,-0.085 0.327,-0.097 0.327,-0.112L0.327,-0.29C0.327,-0.342 0.318,-0.38 0.299,-0.404C0.28,-0.427 0.25,-0.439 0.207,-0.439C0.184,-0.439 0.159,-0.435 0.133,-0.425C0.106,-0.416 0.084,-0.403 0.066,-0.388C0.049,-0.372 0.04,-0.356 0.04,-0.339C0.04,-0.318 0.046,-0.305 0.059,-0.298C0.072,-0.292 0.088,-0.289 0.107,-0.289C0.11,-0.322 0.113,-0.345 0.115,-0.357C0.117,-0.369 0.122,-0.379 0.128,-0.385C0.135,-0.391 0.146,-0.394 0.162,-0.394C0.193,-0.394 0.215,-0.382 0.228,-0.357C0.241,-0.333 0.248,-0.301 0.248,-0.264L0.248,-0.237C0.197,-0.233 0.155,-0.224 0.121,-0.209C0.088,-0.194 0.063,-0.175 0.047,-0.153C0.031,-0.131 0.023,-0.107 0.023,-0.082C0.023,-0.063 0.027,-0.046 0.036,-0.032C0.045,-0.018 0.056,-0.007 0.071,0C0.085,0.008 0.101,0.012 0.119,0.012ZM0.248,-0.092C0.238,-0.081 0.226,-0.071 0.21,-0.062C0.194,-0.053 0.179,-0.048 0.163,-0.048C0.152,-0.048 0.142,-0.051 0.134,-0.057C0.125,-0.063 0.119,-0.07 0.115,-0.079C0.111,-0.088 0.108,-0.097 0.108,-0.105C0.108,-0.13 0.119,-0.151 0.14,-0.168C0.161,-0.185 0.197,-0.199 0.248,-0.209L0.248,-0.092Z" style="fill-rule:nonzero;stroke:white;stroke-width:0.02px;"/>
                </g>
                <g transform="matrix(32,0,0,32,145.938,0)">
                    <path d="M0.294,-0.042L0.18,-0.059L0.18,-0.246C0.183,-0.269 0.19,-0.289 0.199,-0.305C0.209,-0.321 0.22,-0.333 0.231,-0.341C0.243,-0.349 0.254,-0.353 0.264,-0.353C0.273,-0.353 0.283,-0.351 0.293,-0.347C0.304,-0.344 0.314,-0.339 0.323,-0.333C0.342,-0.349 0.351,-0.367 0.351,-0.388C0.351,-0.402 0.346,-0.415 0.336,-0.426C0.326,-0.437 0.313,-0.442 0.297,-0.442C0.282,-0.442 0.267,-0.437 0.252,-0.427C0.237,-0.418 0.223,-0.403 0.21,-0.383C0.197,-0.363 0.186,-0.339 0.177,-0.311L0.168,-0.311L0.178,-0.423L0.167,-0.435L0.026,-0.417L0.02,-0.379L0.099,-0.355L0.099,-0.056L0.024,-0.036L0.02,-0L0.289,-0L0.294,-0.042Z" style="fill-rule:nonzero;stroke:white;stroke-width:0.02px;"/>
                </g>
            </g>
        </g>
        <g transform="matrix(0.195332,-0.178465,0.178465,0.195332,110.561,36.5902)">
            <g id="text1-6-4">
                <g transform="matrix(32,0,0,32,0,0)">
                    <path d="M0.321,-0.041L0.205,-0.06L0.205,-0.569C0.208,-0.57 0.215,-0.57 0.226,-0.571C0.237,-0.572 0.247,-0.572 0.255,-0.572C0.307,-0.572 0.346,-0.558 0.371,-0.529C0.397,-0.5 0.409,-0.463 0.409,-0.418C0.409,-0.374 0.396,-0.341 0.371,-0.319C0.345,-0.297 0.306,-0.285 0.253,-0.284L0.228,-0.283L0.236,-0.243L0.25,-0.242C0.265,-0.242 0.276,-0.241 0.285,-0.241C0.325,-0.241 0.362,-0.249 0.396,-0.266C0.431,-0.282 0.459,-0.305 0.479,-0.335C0.5,-0.365 0.51,-0.398 0.51,-0.436C0.51,-0.501 0.488,-0.547 0.443,-0.573C0.398,-0.6 0.339,-0.613 0.265,-0.613C0.228,-0.613 0.191,-0.611 0.154,-0.607C0.117,-0.603 0.077,-0.598 0.033,-0.591L0.028,-0.554L0.111,-0.539L0.111,-0.059L0.03,-0.036L0.024,-0L0.314,-0L0.321,-0.041Z" style="fill-rule:nonzero;stroke:white;stroke-width:0.02px;"/>
                </g>
                <g transform="matrix(32,0,0,32,15.7656,0)">
                    <path d="M0.294,-0.042L0.18,-0.059L0.18,-0.246C0.183,-0.269 0.19,-0.289 0.199,-0.305C0.209,-0.321 0.22,-0.333 0.231,-0.341C0.243,-0.349 0.254,-0.353 0.264,-0.353C0.273,-0.353 0.283,-0.351 0.293,-0.347C0.304,-0.344 0.314,-0.339 0.323,-0.333C0.342,-0.349 0.351,-0.367 0.351,-0.388C0.351,-0.402 0.346,-0.415 0.336,-0.426C0.326,-0.437 0.313,-0.442 0.297,-0.442C0.282,-0.442 0.267,-0.437 0.252,-0.427C0.237,-0.418 0.223,-0.403 0.21,-0.383C0.197,-0.363 0.186,-0.339 0.177,-0.311L0.168,-0.311L0.178,-0.423L0.167,-0.435L0.026,-0.417L0.02,-0.379L0.099,-0.355L0.099,-0.056L0.024,-0.036L0.02,-0L0.289,-0L0.294,-0.042Z" style="fill-rule:nonzero;stroke:white;stroke-width:0.02px;"/>
                </g>
                <g transform="matrix(32,0,0,32,27.25,0)">
                    <path d="M0.209,0.015C0.241,0.015 0.271,0.009 0.299,-0.003C0.327,-0.014 0.351,-0.03 0.37,-0.051L0.36,-0.077C0.344,-0.068 0.33,-0.062 0.318,-0.058C0.306,-0.054 0.295,-0.052 0.286,-0.051C0.277,-0.05 0.265,-0.05 0.249,-0.05C0.22,-0.05 0.196,-0.058 0.176,-0.074C0.156,-0.091 0.141,-0.112 0.13,-0.138C0.12,-0.163 0.114,-0.19 0.113,-0.217L0.349,-0.22C0.351,-0.229 0.353,-0.24 0.354,-0.253C0.356,-0.266 0.357,-0.276 0.357,-0.284C0.357,-0.317 0.351,-0.345 0.34,-0.368C0.328,-0.392 0.312,-0.409 0.292,-0.421C0.273,-0.433 0.251,-0.439 0.227,-0.439C0.194,-0.439 0.162,-0.43 0.131,-0.411C0.1,-0.393 0.075,-0.366 0.055,-0.331C0.036,-0.296 0.026,-0.256 0.026,-0.209C0.026,-0.162 0.035,-0.121 0.052,-0.087C0.069,-0.054 0.092,-0.028 0.12,-0.011C0.148,0.006 0.178,0.015 0.209,0.015ZM0.203,-0.391C0.248,-0.391 0.27,-0.361 0.27,-0.3C0.27,-0.295 0.27,-0.289 0.269,-0.282C0.269,-0.275 0.268,-0.27 0.267,-0.267L0.114,-0.255C0.115,-0.285 0.121,-0.31 0.13,-0.331C0.139,-0.351 0.15,-0.366 0.163,-0.376C0.176,-0.386 0.189,-0.391 0.203,-0.391Z" style="fill-rule:nonzero;stroke:white;stroke-width:0.02px;"/>
                </g>
                <g transform="matrix(32,0,0,32,39.7812,0)">
                    <path d="M0.057,-0.369L0.192,0.014L0.254,0.005L0.388,-0.37L0.44,-0.39L0.446,-0.426L0.259,-0.426L0.252,-0.39L0.331,-0.369L0.237,-0.095L0.146,-0.37L0.216,-0.39L0.22,-0.426L0.002,-0.426L-0.003,-0.39L0.057,-0.369Z" style="fill-rule:nonzero;stroke:white;stroke-width:0.02px;"/>
                </g>
                <g transform="matrix(32,0,0,32,53.9062,0)">
                    <path d="M0.134,-0.522C0.145,-0.522 0.155,-0.525 0.164,-0.531C0.173,-0.536 0.18,-0.543 0.186,-0.552C0.191,-0.561 0.194,-0.571 0.194,-0.582C0.194,-0.598 0.188,-0.611 0.176,-0.622C0.165,-0.632 0.151,-0.638 0.134,-0.638C0.119,-0.638 0.105,-0.632 0.094,-0.622C0.082,-0.611 0.076,-0.598 0.076,-0.583C0.076,-0.572 0.079,-0.562 0.084,-0.553C0.089,-0.544 0.096,-0.536 0.105,-0.531C0.114,-0.525 0.124,-0.522 0.134,-0.522ZM0.252,-0L0.258,-0.039L0.18,-0.057L0.18,-0.42L0.167,-0.432L0.03,-0.421L0.024,-0.384L0.098,-0.357L0.098,-0.057L0.024,-0.039L0.018,-0L0.252,-0Z" style="fill-rule:nonzero;stroke:white;stroke-width:0.02px;"/>
                </g>
                <g transform="matrix(32,0,0,32,62.3281,0)">
                    <path d="M0.226,0.013C0.264,0.013 0.298,0.004 0.33,-0.016C0.361,-0.035 0.385,-0.062 0.404,-0.097C0.422,-0.132 0.431,-0.171 0.431,-0.215C0.431,-0.26 0.423,-0.299 0.407,-0.333C0.392,-0.367 0.37,-0.394 0.341,-0.413C0.311,-0.431 0.277,-0.441 0.238,-0.441C0.201,-0.441 0.166,-0.432 0.134,-0.413C0.101,-0.395 0.075,-0.368 0.055,-0.332C0.035,-0.297 0.025,-0.256 0.025,-0.208C0.025,-0.166 0.033,-0.128 0.049,-0.094C0.065,-0.061 0.088,-0.035 0.118,-0.016C0.148,0.004 0.184,0.013 0.226,0.013ZM0.217,-0.39C0.246,-0.39 0.27,-0.379 0.289,-0.358C0.308,-0.336 0.322,-0.309 0.331,-0.277C0.339,-0.244 0.344,-0.21 0.344,-0.175C0.344,-0.151 0.34,-0.128 0.333,-0.107C0.325,-0.085 0.314,-0.068 0.298,-0.054C0.283,-0.041 0.264,-0.034 0.243,-0.034C0.212,-0.034 0.188,-0.044 0.168,-0.064C0.148,-0.084 0.134,-0.11 0.125,-0.141C0.117,-0.173 0.112,-0.207 0.112,-0.243C0.112,-0.269 0.116,-0.294 0.124,-0.316C0.131,-0.338 0.143,-0.356 0.158,-0.37C0.174,-0.383 0.194,-0.39 0.217,-0.39Z" style="fill-rule:nonzero;stroke:white;stroke-width:0.02px;"/>
                </g>
                <g transform="matrix(32,0,0,32,76.9219,0)">
                    <path d="M0.077,-0.13C0.077,-0.081 0.086,-0.045 0.106,-0.022C0.125,0 0.152,0.011 0.186,0.011C0.244,0.011 0.291,-0.014 0.325,-0.064L0.332,-0.064L0.332,-0.06C0.332,-0.038 0.338,-0.021 0.35,-0.008C0.362,0.005 0.38,0.011 0.403,0.011C0.418,0.011 0.43,0.011 0.439,0.009C0.449,0.008 0.462,0.006 0.477,0.002L0.481,-0.039L0.459,-0.043C0.446,-0.046 0.436,-0.049 0.429,-0.053C0.422,-0.056 0.416,-0.062 0.412,-0.07C0.408,-0.078 0.406,-0.089 0.406,-0.105L0.406,-0.419L0.396,-0.431L0.252,-0.418L0.248,-0.373L0.325,-0.353L0.325,-0.093C0.313,-0.081 0.301,-0.072 0.286,-0.065C0.272,-0.059 0.255,-0.056 0.234,-0.056C0.184,-0.056 0.159,-0.089 0.159,-0.155L0.159,-0.419L0.147,-0.431L0.016,-0.421L0.009,-0.382L0.077,-0.355L0.077,-0.13Z" style="fill-rule:nonzero;stroke:white;stroke-width:0.02px;"/>
                </g>
                <g transform="matrix(32,0,0,32,92.5781,0)">
                    <path d="M0.166,0.017C0.191,0.017 0.215,0.011 0.239,0C0.262,-0.01 0.281,-0.025 0.295,-0.044C0.309,-0.063 0.316,-0.084 0.316,-0.107C0.316,-0.129 0.311,-0.149 0.299,-0.165C0.288,-0.182 0.274,-0.196 0.258,-0.208C0.242,-0.219 0.221,-0.232 0.195,-0.246C0.173,-0.258 0.157,-0.268 0.145,-0.276C0.132,-0.285 0.122,-0.294 0.114,-0.304C0.106,-0.315 0.102,-0.327 0.102,-0.34C0.102,-0.356 0.107,-0.37 0.117,-0.381C0.127,-0.393 0.14,-0.398 0.157,-0.398C0.176,-0.398 0.192,-0.389 0.205,-0.371C0.218,-0.352 0.227,-0.325 0.233,-0.288C0.254,-0.289 0.271,-0.295 0.283,-0.307C0.295,-0.319 0.301,-0.334 0.301,-0.353C0.301,-0.369 0.296,-0.384 0.286,-0.397C0.276,-0.41 0.262,-0.42 0.244,-0.428C0.226,-0.436 0.205,-0.439 0.182,-0.439C0.151,-0.439 0.124,-0.433 0.102,-0.42C0.08,-0.406 0.064,-0.39 0.053,-0.37C0.042,-0.35 0.036,-0.33 0.036,-0.31C0.036,-0.287 0.042,-0.266 0.054,-0.248C0.066,-0.23 0.08,-0.215 0.097,-0.203C0.114,-0.191 0.135,-0.177 0.162,-0.162C0.182,-0.151 0.197,-0.141 0.208,-0.134C0.219,-0.127 0.228,-0.119 0.235,-0.11C0.242,-0.101 0.246,-0.091 0.246,-0.081C0.246,-0.064 0.24,-0.051 0.228,-0.043C0.215,-0.035 0.2,-0.031 0.181,-0.031C0.161,-0.031 0.142,-0.039 0.125,-0.055C0.109,-0.072 0.095,-0.096 0.084,-0.127C0.066,-0.126 0.051,-0.119 0.041,-0.106C0.03,-0.093 0.024,-0.077 0.024,-0.059C0.024,-0.046 0.03,-0.034 0.042,-0.022C0.054,-0.01 0.07,-0.001 0.092,0.006C0.113,0.013 0.138,0.017 0.166,0.017Z" style="fill-rule:nonzero;stroke:white;stroke-width:0.02px;"/>
                </g>
                <g transform="matrix(32,0,0,32,108.234,0)">
                    <path d="M0.057,-0.55L0.229,-0.246L0.229,-0.059L0.156,-0.036L0.151,-0L0.398,-0L0.403,-0.039L0.324,-0.056L0.324,-0.258L0.492,-0.552L0.553,-0.57L0.558,-0.607L0.341,-0.607L0.336,-0.57L0.425,-0.55L0.296,-0.313L0.161,-0.552L0.238,-0.57L0.244,-0.607L-0.004,-0.607L-0.01,-0.57L0.057,-0.55Z" style="fill-rule:nonzero;stroke:white;stroke-width:0.02px;"/>
                </g>
                <g transform="matrix(32,0,0,32,127.141,0)">
                    <path d="M0.209,0.015C0.241,0.015 0.271,0.009 0.299,-0.003C0.327,-0.014 0.351,-0.03 0.37,-0.051L0.36,-0.077C0.344,-0.068 0.33,-0.062 0.318,-0.058C0.306,-0.054 0.295,-0.052 0.286,-0.051C0.277,-0.05 0.265,-0.05 0.249,-0.05C0.22,-0.05 0.196,-0.058 0.176,-0.074C0.156,-0.091 0.141,-0.112 0.13,-0.138C0.12,-0.163 0.114,-0.19 0.113,-0.217L0.349,-0.22C0.351,-0.229 0.353,-0.24 0.354,-0.253C0.356,-0.266 0.357,-0.276 0.357,-0.284C0.357,-0.317 0.351,-0.345 0.34,-0.368C0.328,-0.392 0.312,-0.409 0.292,-0.421C0.273,-0.433 0.251,-0.439 0.227,-0.439C0.194,-0.439 0.162,-0.43 0.131,-0.411C0.1,-0.393 0.075,-0.366 0.055,-0.331C0.036,-0.296 0.026,-0.256 0.026,-0.209C0.026,-0.162 0.035,-0.121 0.052,-0.087C0.069,-0.054 0.092,-0.028 0.12,-0.011C0.148,0.006 0.178,0.015 0.209,0.015ZM0.203,-0.391C0.248,-0.391 0.27,-0.361 0.27,-0.3C0.27,-0.295 0.27,-0.289 0.269,-0.282C0.269,-0.275 0.268,-0.27 0.267,-0.267L0.114,-0.255C0.115,-0.285 0.121,-0.31 0.13,-0.331C0.139,-0.351 0.15,-0.366 0.163,-0.376C0.176,-0.386 0.189,-0.391 0.203,-0.391Z" style="fill-rule:nonzero;stroke:white;stroke-width:0.02px;"/>
                </g>
                <g transform="matrix(32,0,0,32,139.672,0)">
                    <path d="M0.119,0.012C0.154,0.012 0.183,0.004 0.205,-0.012C0.227,-0.029 0.243,-0.046 0.252,-0.064L0.258,-0.064L0.258,-0.057C0.258,-0.046 0.26,-0.036 0.265,-0.026C0.27,-0.016 0.279,-0.007 0.29,-0.001C0.301,0.006 0.316,0.009 0.333,0.009C0.347,0.009 0.362,0.007 0.377,0.003C0.388,0.001 0.395,0 0.4,-0L0.406,-0.042L0.382,-0.047C0.367,-0.049 0.355,-0.053 0.347,-0.057C0.34,-0.062 0.334,-0.068 0.332,-0.076C0.329,-0.085 0.327,-0.097 0.327,-0.112L0.327,-0.29C0.327,-0.342 0.318,-0.38 0.299,-0.404C0.28,-0.427 0.25,-0.439 0.207,-0.439C0.184,-0.439 0.159,-0.435 0.133,-0.425C0.106,-0.416 0.084,-0.403 0.066,-0.388C0.049,-0.372 0.04,-0.356 0.04,-0.339C0.04,-0.318 0.046,-0.305 0.059,-0.298C0.072,-0.292 0.088,-0.289 0.107,-0.289C0.11,-0.322 0.113,-0.345 0.115,-0.357C0.117,-0.369 0.122,-0.379 0.128,-0.385C0.135,-0.391 0.146,-0.394 0.162,-0.394C0.193,-0.394 0.215,-0.382 0.228,-0.357C0.241,-0.333 0.248,-0.301 0.248,-0.264L0.248,-0.237C0.197,-0.233 0.155,-0.224 0.121,-0.209C0.088,-0.194 0.063,-0.175 0.047,-0.153C0.031,-0.131 0.023,-0.107 0.023,-0.082C0.023,-0.063 0.027,-0.046 0.036,-0.032C0.045,-0.018 0.056,-0.007 0.071,0C0.085,0.008 0.101,0.012 0.119,0.012ZM0.248,-0.092C0.238,-0.081 0.226,-0.071 0.21,-0.062C0.194,-0.053 0.179,-0.048 0.163,-0.048C0.152,-0.048 0.142,-0.051 0.134,-0.057C0.125,-0.063 0.119,-0.07 0.115,-0.079C0.111,-0.088 0.108,-0.097 0.108,-0.105C0.108,-0.13 0.119,-0.151 0.14,-0.168C0.161,-0.185 0.197,-0.199 0.248,-0.209L0.248,-0.092Z" style="fill-rule:nonzero;stroke:white;stroke-width:0.02px;"/>
                </g>
                <g transform="matrix(32,0,0,32,152.641,0)">
                    <path d="M0.294,-0.042L0.18,-0.059L0.18,-0.246C0.183,-0.269 0.19,-0.289 0.199,-0.305C0.209,-0.321 0.22,-0.333 0.231,-0.341C0.243,-0.349 0.254,-0.353 0.264,-0.353C0.273,-0.353 0.283,-0.351 0.293,-0.347C0.304,-0.344 0.314,-0.339 0.323,-0.333C0.342,-0.349 0.351,-0.367 0.351,-0.388C0.351,-0.402 0.346,-0.415 0.336,-0.426C0.326,-0.437 0.313,-0.442 0.297,-0.442C0.282,-0.442 0.267,-0.437 0.252,-0.427C0.237,-0.418 0.223,-0.403 0.21,-0.383C0.197,-0.363 0.186,-0.339 0.177,-0.311L0.168,-0.311L0.178,-0.423L0.167,-0.435L0.026,-0.417L0.02,-0.379L0.099,-0.355L0.099,-0.056L0.024,-0.036L0.02,-0L0.289,-0L0.294,-0.042Z" style="fill-rule:nonzero;stroke:white;stroke-width:0.02px;"/>
                </g>
                <g transform="matrix(32,0,0,32,164.125,0)">
                    <path d="M0.166,0.017C0.191,0.017 0.215,0.011 0.239,0C0.262,-0.01 0.281,-0.025 0.295,-0.044C0.309,-0.063 0.316,-0.084 0.316,-0.107C0.316,-0.129 0.311,-0.149 0.299,-0.165C0.288,-0.182 0.274,-0.196 0.258,-0.208C0.242,-0.219 0.221,-0.232 0.195,-0.246C0.173,-0.258 0.157,-0.268 0.145,-0.276C0.132,-0.285 0.122,-0.294 0.114,-0.304C0.106,-0.315 0.102,-0.327 0.102,-0.34C0.102,-0.356 0.107,-0.37 0.117,-0.381C0.127,-0.393 0.14,-0.398 0.157,-0.398C0.176,-0.398 0.192,-0.389 0.205,-0.371C0.218,-0.352 0.227,-0.325 0.233,-0.288C0.254,-0.289 0.271,-0.295 0.283,-0.307C0.295,-0.319 0.301,-0.334 0.301,-0.353C0.301,-0.369 0.296,-0.384 0.286,-0.397C0.276,-0.41 0.262,-0.42 0.244,-0.428C0.226,-0.436 0.205,-0.439 0.182,-0.439C0.151,-0.439 0.124,-0.433 0.102,-0.42C0.08,-0.406 0.064,-0.39 0.053,-0.37C0.042,-0.35 0.036,-0.33 0.036,-0.31C0.036,-0.287 0.042,-0.266 0.054,-0.248C0.066,-0.23 0.08,-0.215 0.097,-0.203C0.114,-0.191 0.135,-0.177 0.162,-0.162C0.182,-0.151 0.197,-0.141 0.208,-0.134C0.219,-0.127 0.228,-0.119 0.235,-0.11C0.242,-0.101 0.246,-0.091 0.246,-0.081C0.246,-0.064 0.24,-0.051 0.228,-0.043C0.215,-0.035 0.2,-0.031 0.181,-0.031C0.161,-0.031 0.142,-0.039 0.125,-0.055C0.109,-0.072 0.095,-0.096 0.084,-0.127C0.066,-0.126 0.051,-0.119 0.041,-0.106C0.03,-0.093 0.024,-0.077 0.024,-0.059C0.024,-0.046 0.03,-0.034 0.042,-0.022C0.054,-0.01 0.07,-0.001 0.092,0.006C0.113,0.013 0.138,0.017 0.166,0.017Z" style="fill-rule:nonzero;stroke:white;stroke-width:0.02px;"/>
                </g>
            </g>
        </g>
        <g transform="matrix(0.264583,0,0,0.264583,32.5954,50.8917)">
            <g id="text1-9">
                <g>
                    <g transform="matrix(32,0,0,32,0,0)">
                        <path d="M0.113,-0.55L0.113,-0.059L0.032,-0.036L0.028,-0L0.292,-0L0.298,-0.039L0.208,-0.056L0.208,-0.288L0.515,-0.288L0.515,-0.059L0.434,-0.036L0.429,-0L0.694,-0L0.699,-0.039L0.61,-0.056L0.61,-0.552L0.691,-0.57L0.697,-0.607L0.431,-0.607L0.425,-0.57L0.515,-0.55L0.515,-0.338L0.208,-0.338L0.208,-0.552L0.291,-0.57L0.295,-0.607L0.03,-0.607L0.024,-0.57L0.113,-0.55Z" style="fill-rule:nonzero;stroke:white;stroke-width:0.02px;"/>
                    </g>
                    <g transform="matrix(32,0,0,32,22.125,0)">
                        <path d="M0.226,0.013C0.264,0.013 0.298,0.004 0.33,-0.016C0.361,-0.035 0.385,-0.062 0.404,-0.097C0.422,-0.132 0.431,-0.171 0.431,-0.215C0.431,-0.26 0.423,-0.299 0.407,-0.333C0.392,-0.367 0.37,-0.394 0.341,-0.413C0.311,-0.431 0.277,-0.441 0.238,-0.441C0.201,-0.441 0.166,-0.432 0.134,-0.413C0.101,-0.395 0.075,-0.368 0.055,-0.332C0.035,-0.297 0.025,-0.256 0.025,-0.208C0.025,-0.166 0.033,-0.128 0.049,-0.094C0.065,-0.061 0.088,-0.035 0.118,-0.016C0.148,0.004 0.184,0.013 0.226,0.013ZM0.217,-0.39C0.246,-0.39 0.27,-0.379 0.289,-0.358C0.308,-0.336 0.322,-0.309 0.331,-0.277C0.339,-0.244 0.344,-0.21 0.344,-0.175C0.344,-0.151 0.34,-0.128 0.333,-0.107C0.325,-0.085 0.314,-0.068 0.298,-0.054C0.283,-0.041 0.264,-0.034 0.243,-0.034C0.212,-0.034 0.188,-0.044 0.168,-0.064C0.148,-0.084 0.134,-0.11 0.125,-0.141C0.117,-0.173 0.112,-0.207 0.112,-0.243C0.112,-0.269 0.116,-0.294 0.124,-0.316C0.131,-0.338 0.143,-0.356 0.158,-0.37C0.174,-0.383 0.194,-0.39 0.217,-0.39Z" style="fill-rule:nonzero;stroke:white;stroke-width:0.02px;"/>
                    </g>
                    <g transform="matrix(32,0,0,32,36.7188,0)">
                        <path d="M0.251,-0.039L0.182,-0.056L0.182,-0.329C0.194,-0.342 0.208,-0.353 0.225,-0.36C0.242,-0.367 0.26,-0.371 0.278,-0.371C0.293,-0.371 0.308,-0.368 0.32,-0.36C0.333,-0.353 0.343,-0.343 0.35,-0.33C0.358,-0.317 0.361,-0.302 0.361,-0.286L0.361,-0.056L0.297,-0.036L0.292,-0L0.508,-0L0.513,-0.039L0.441,-0.056L0.441,-0.322C0.455,-0.338 0.469,-0.35 0.484,-0.358C0.498,-0.367 0.515,-0.371 0.534,-0.371C0.56,-0.371 0.58,-0.363 0.594,-0.347C0.609,-0.33 0.616,-0.31 0.616,-0.286L0.616,-0.055L0.555,-0.036L0.552,-0L0.759,-0L0.766,-0.039L0.698,-0.056L0.698,-0.297C0.698,-0.388 0.66,-0.434 0.583,-0.434C0.554,-0.434 0.527,-0.426 0.502,-0.412C0.477,-0.397 0.456,-0.379 0.439,-0.357L0.433,-0.357C0.426,-0.385 0.412,-0.405 0.392,-0.418C0.372,-0.431 0.35,-0.438 0.325,-0.438C0.297,-0.438 0.269,-0.43 0.243,-0.416C0.218,-0.401 0.196,-0.383 0.179,-0.361L0.174,-0.361L0.183,-0.423L0.174,-0.433L0.026,-0.413L0.021,-0.376L0.099,-0.351L0.099,-0.056L0.026,-0.036L0.021,-0L0.246,-0L0.251,-0.039Z" style="fill-rule:nonzero;stroke:white;stroke-width:0.02px;"/>
                    </g>
                    <g transform="matrix(32,0,0,32,61.4688,0)">
                        <path d="M0.209,0.015C0.241,0.015 0.271,0.009 0.299,-0.003C0.327,-0.014 0.351,-0.03 0.37,-0.051L0.36,-0.077C0.344,-0.068 0.33,-0.062 0.318,-0.058C0.306,-0.054 0.295,-0.052 0.286,-0.051C0.277,-0.05 0.265,-0.05 0.249,-0.05C0.22,-0.05 0.196,-0.058 0.176,-0.074C0.156,-0.091 0.141,-0.112 0.13,-0.138C0.12,-0.163 0.114,-0.19 0.113,-0.217L0.349,-0.22C0.351,-0.229 0.353,-0.24 0.354,-0.253C0.356,-0.266 0.357,-0.276 0.357,-0.284C0.357,-0.317 0.351,-0.345 0.34,-0.368C0.328,-0.392 0.312,-0.409 0.292,-0.421C0.273,-0.433 0.251,-0.439 0.227,-0.439C0.194,-0.439 0.162,-0.43 0.131,-0.411C0.1,-0.393 0.075,-0.366 0.055,-0.331C0.036,-0.296 0.026,-0.256 0.026,-0.209C0.026,-0.162 0.035,-0.121 0.052,-0.087C0.069,-0.054 0.092,-0.028 0.12,-0.011C0.148,0.006 0.178,0.015 0.209,0.015ZM0.203,-0.391C0.248,-0.391 0.27,-0.361 0.27,-0.3C0.27,-0.295 0.27,-0.289 0.269,-0.282C0.269,-0.275 0.268,-0.27 0.267,-0.267L0.114,-0.255C0.115,-0.285 0.121,-0.31 0.13,-0.331C0.139,-0.351 0.15,-0.366 0.163,-0.376C0.176,-0.386 0.189,-0.391 0.203,-0.391Z" style="fill-rule:nonzero;stroke:white;stroke-width:0.02px;"/>
                    </g>
                    <g transform="matrix(32,0,0,32,74,0)">
                        <path d="M0.166,0.017C0.191,0.017 0.215,0.011 0.239,0C0.262,-0.01 0.281,-0.025 0.295,-0.044C0.309,-0.063 0.316,-0.084 0.316,-0.107C0.316,-0.129 0.311,-0.149 0.299,-0.165C0.288,-0.182 0.274,-0.196 0.258,-0.208C0.242,-0.219 0.221,-0.232 0.195,-0.246C0.173,-0.258 0.157,-0.268 0.145,-0.276C0.132,-0.285 0.122,-0.294 0.114,-0.304C0.106,-0.315 0.102,-0.327 0.102,-0.34C0.102,-0.356 0.107,-0.37 0.117,-0.381C0.127,-0.393 0.14,-0.398 0.157,-0.398C0.176,-0.398 0.192,-0.389 0.205,-0.371C0.218,-0.352 0.227,-0.325 0.233,-0.288C0.254,-0.289 0.271,-0.295 0.283,-0.307C0.295,-0.319 0.301,-0.334 0.301,-0.353C0.301,-0.369 0.296,-0.384 0.286,-0.397C0.276,-0.41 0.262,-0.42 0.244,-0.428C0.226,-0.436 0.205,-0.439 0.182,-0.439C0.151,-0.439 0.124,-0.433 0.102,-0.42C0.08,-0.406 0.064,-0.39 0.053,-0.37C0.042,-0.35 0.036,-0.33 0.036,-0.31C0.036,-0.287 0.042,-0.266 0.054,-0.248C0.066,-0.23 0.08,-0.215 0.097,-0.203C0.114,-0.191 0.135,-0.177 0.162,-0.162C0.182,-0.151 0.197,-0.141 0.208,-0.134C0.219,-0.127 0.228,-0.119 0.235,-0.11C0.242,-0.101 0.246,-0.091 0.246,-0.081C0.246,-0.064 0.24,-0.051 0.228,-0.043C0.215,-0.035 0.2,-0.031 0.181,-0.031C0.161,-0.031 0.142,-0.039 0.125,-0.055C0.109,-0.072 0.095,-0.096 0.084,-0.127C0.066,-0.126 0.051,-0.119 0.041,-0.106C0.03,-0.093 0.024,-0.077 0.024,-0.059C0.024,-0.046 0.03,-0.034 0.042,-0.022C0.054,-0.01 0.07,-0.001 0.092,0.006C0.113,0.013 0.138,0.017 0.166,0.017Z" style="fill-rule:nonzero;stroke:white;stroke-width:0.02px;"/>
                    </g>
                    <g transform="matrix(32,0,0,32,84.8906,0)">
                        <path d="M0.074,-0.127C0.073,-0.076 0.082,-0.04 0.101,-0.02C0.119,0.001 0.145,0.011 0.178,0.011C0.205,0.011 0.23,0.005 0.253,-0.008C0.276,-0.021 0.295,-0.038 0.31,-0.061L0.3,-0.087C0.3,-0.087 0.296,-0.084 0.288,-0.079C0.281,-0.074 0.272,-0.07 0.261,-0.066C0.251,-0.062 0.24,-0.06 0.229,-0.06C0.212,-0.06 0.198,-0.063 0.188,-0.068C0.178,-0.074 0.17,-0.084 0.165,-0.098C0.16,-0.112 0.158,-0.131 0.158,-0.156L0.159,-0.372L0.294,-0.372L0.298,-0.415L0.16,-0.415L0.16,-0.531L0.134,-0.531C0.117,-0.507 0.097,-0.483 0.076,-0.459C0.054,-0.435 0.034,-0.415 0.014,-0.399L0.014,-0.373L0.076,-0.373L0.074,-0.127Z" style="fill-rule:nonzero;stroke:white;stroke-width:0.02px;"/>
                    </g>
                    <g transform="matrix(32,0,0,32,95.0312,0)">
                        <path d="M0.209,0.015C0.241,0.015 0.271,0.009 0.299,-0.003C0.327,-0.014 0.351,-0.03 0.37,-0.051L0.36,-0.077C0.344,-0.068 0.33,-0.062 0.318,-0.058C0.306,-0.054 0.295,-0.052 0.286,-0.051C0.277,-0.05 0.265,-0.05 0.249,-0.05C0.22,-0.05 0.196,-0.058 0.176,-0.074C0.156,-0.091 0.141,-0.112 0.13,-0.138C0.12,-0.163 0.114,-0.19 0.113,-0.217L0.349,-0.22C0.351,-0.229 0.353,-0.24 0.354,-0.253C0.356,-0.266 0.357,-0.276 0.357,-0.284C0.357,-0.317 0.351,-0.345 0.34,-0.368C0.328,-0.392 0.312,-0.409 0.292,-0.421C0.273,-0.433 0.251,-0.439 0.227,-0.439C0.194,-0.439 0.162,-0.43 0.131,-0.411C0.1,-0.393 0.075,-0.366 0.055,-0.331C0.036,-0.296 0.026,-0.256 0.026,-0.209C0.026,-0.162 0.035,-0.121 0.052,-0.087C0.069,-0.054 0.092,-0.028 0.12,-0.011C0.148,0.006 0.178,0.015 0.209,0.015ZM0.203,-0.391C0.248,-0.391 0.27,-0.361 0.27,-0.3C0.27,-0.295 0.27,-0.289 0.269,-0.282C0.269,-0.275 0.268,-0.27 0.267,-0.267L0.114,-0.255C0.115,-0.285 0.121,-0.31 0.13,-0.331C0.139,-0.351 0.15,-0.366 0.163,-0.376C0.176,-0.386 0.189,-0.391 0.203,-0.391Z" style="fill-rule:nonzero;stroke:white;stroke-width:0.02px;"/>
                    </g>
                    <g transform="matrix(32,0,0,32,107.562,0)">
                        <path d="M0.119,0.012C0.154,0.012 0.183,0.004 0.205,-0.012C0.227,-0.029 0.243,-0.046 0.252,-0.064L0.258,-0.064L0.258,-0.057C0.258,-0.046 0.26,-0.036 0.265,-0.026C0.27,-0.016 0.279,-0.007 0.29,-0.001C0.301,0.006 0.316,0.009 0.333,0.009C0.347,0.009 0.362,0.007 0.377,0.003C0.388,0.001 0.395,0 0.4,-0L0.406,-0.042L0.382,-0.047C0.367,-0.049 0.355,-0.053 0.347,-0.057C0.34,-0.062 0.334,-0.068 0.332,-0.076C0.329,-0.085 0.327,-0.097 0.327,-0.112L0.327,-0.29C0.327,-0.342 0.318,-0.38 0.299,-0.404C0.28,-0.427 0.25,-0.439 0.207,-0.439C0.184,-0.439 0.159,-0.435 0.133,-0.425C0.106,-0.416 0.084,-0.403 0.066,-0.388C0.049,-0.372 0.04,-0.356 0.04,-0.339C0.04,-0.318 0.046,-0.305 0.059,-0.298C0.072,-0.292 0.088,-0.289 0.107,-0.289C0.11,-0.322 0.113,-0.345 0.115,-0.357C0.117,-0.369 0.122,-0.379 0.128,-0.385C0.135,-0.391 0.146,-0.394 0.162,-0.394C0.193,-0.394 0.215,-0.382 0.228,-0.357C0.241,-0.333 0.248,-0.301 0.248,-0.264L0.248,-0.237C0.197,-0.233 0.155,-0.224 0.121,-0.209C0.088,-0.194 0.063,-0.175 0.047,-0.153C0.031,-0.131 0.023,-0.107 0.023,-0.082C0.023,-0.063 0.027,-0.046 0.036,-0.032C0.045,-0.018 0.056,-0.007 0.071,0C0.085,0.008 0.101,0.012 0.119,0.012ZM0.248,-0.092C0.238,-0.081 0.226,-0.071 0.21,-0.062C0.194,-0.053 0.179,-0.048 0.163,-0.048C0.152,-0.048 0.142,-0.051 0.134,-0.057C0.125,-0.063 0.119,-0.07 0.115,-0.079C0.111,-0.088 0.108,-0.097 0.108,-0.105C0.108,-0.13 0.119,-0.151 0.14,-0.168C0.161,-0.185 0.197,-0.199 0.248,-0.209L0.248,-0.092Z" style="fill-rule:nonzero;stroke:white;stroke-width:0.02px;"/>
                    </g>
                    <g transform="matrix(32,0,0,32,120.531,0)">
                        <path d="M0.186,0.01C0.216,0.01 0.243,0.003 0.264,-0.01C0.286,-0.024 0.305,-0.042 0.321,-0.064L0.325,-0.064L0.325,-0.061C0.325,-0.039 0.331,-0.022 0.344,-0.009C0.357,0.005 0.375,0.011 0.398,0.011C0.413,0.011 0.425,0.011 0.434,0.01C0.443,0.008 0.455,0.006 0.47,0.002L0.475,-0.039L0.453,-0.043C0.439,-0.047 0.429,-0.05 0.422,-0.052C0.415,-0.055 0.41,-0.061 0.406,-0.069C0.402,-0.077 0.4,-0.089 0.4,-0.105L0.4,-0.621L0.39,-0.632L0.254,-0.621L0.247,-0.584L0.321,-0.557L0.321,-0.48L0.327,-0.418L0.324,-0.418C0.316,-0.424 0.304,-0.429 0.288,-0.433C0.272,-0.437 0.256,-0.439 0.24,-0.439C0.206,-0.439 0.172,-0.429 0.139,-0.407C0.106,-0.386 0.079,-0.356 0.058,-0.319C0.037,-0.281 0.026,-0.24 0.026,-0.195C0.026,-0.152 0.033,-0.114 0.048,-0.083C0.062,-0.053 0.081,-0.029 0.105,-0.013C0.129,0.002 0.156,0.01 0.186,0.01ZM0.216,-0.392C0.234,-0.392 0.252,-0.386 0.272,-0.374C0.292,-0.361 0.308,-0.345 0.321,-0.325L0.321,-0.096C0.311,-0.085 0.297,-0.075 0.278,-0.065C0.258,-0.056 0.239,-0.051 0.22,-0.051C0.199,-0.051 0.181,-0.058 0.165,-0.071C0.148,-0.084 0.135,-0.104 0.126,-0.13C0.117,-0.156 0.112,-0.188 0.112,-0.226C0.112,-0.276 0.121,-0.316 0.137,-0.346C0.154,-0.377 0.18,-0.392 0.216,-0.392Z" style="fill-rule:nonzero;stroke:white;stroke-width:0.02px;"/>
                    </g>
                    <g transform="matrix(32,0,0,32,-83.8438,57.6)">
                        <path d="M0.113,-0.545L0.113,-0.059L0.032,-0.036L0.028,-0L0.26,-0L0.265,-0.039L0.176,-0.056L0.176,-0.469L0.5,0.015L0.574,-0L0.574,-0.552L0.656,-0.57L0.662,-0.607L0.43,-0.607L0.424,-0.57L0.515,-0.55L0.515,-0.134L0.201,-0.607L0.03,-0.607L0.024,-0.57L0.113,-0.545Z" style="fill-rule:nonzero;stroke:white;stroke-width:0.02px;"/>
                    </g>
                    <g transform="matrix(32,0,0,32,-62.9531,57.6)">
                        <path d="M0.119,0.012C0.154,0.012 0.183,0.004 0.205,-0.012C0.227,-0.029 0.243,-0.046 0.252,-0.064L0.258,-0.064L0.258,-0.057C0.258,-0.046 0.26,-0.036 0.265,-0.026C0.27,-0.016 0.279,-0.007 0.29,-0.001C0.301,0.006 0.316,0.009 0.333,0.009C0.347,0.009 0.362,0.007 0.377,0.003C0.388,0.001 0.395,0 0.4,-0L0.406,-0.042L0.382,-0.047C0.367,-0.049 0.355,-0.053 0.347,-0.057C0.34,-0.062 0.334,-0.068 0.332,-0.076C0.329,-0.085 0.327,-0.097 0.327,-0.112L0.327,-0.29C0.327,-0.342 0.318,-0.38 0.299,-0.404C0.28,-0.427 0.25,-0.439 0.207,-0.439C0.184,-0.439 0.159,-0.435 0.133,-0.425C0.106,-0.416 0.084,-0.403 0.066,-0.388C0.049,-0.372 0.04,-0.356 0.04,-0.339C0.04,-0.318 0.046,-0.305 0.059,-0.298C0.072,-0.292 0.088,-0.289 0.107,-0.289C0.11,-0.322 0.113,-0.345 0.115,-0.357C0.117,-0.369 0.122,-0.379 0.128,-0.385C0.135,-0.391 0.146,-0.394 0.162,-0.394C0.193,-0.394 0.215,-0.382 0.228,-0.357C0.241,-0.333 0.248,-0.301 0.248,-0.264L0.248,-0.237C0.197,-0.233 0.155,-0.224 0.121,-0.209C0.088,-0.194 0.063,-0.175 0.047,-0.153C0.031,-0.131 0.023,-0.107 0.023,-0.082C0.023,-0.063 0.027,-0.046 0.036,-0.032C0.045,-0.018 0.056,-0.007 0.071,0C0.085,0.008 0.101,0.012 0.119,0.012ZM0.248,-0.092C0.238,-0.081 0.226,-0.071 0.21,-0.062C0.194,-0.053 0.179,-0.048 0.163,-0.048C0.152,-0.048 0.142,-0.051 0.134,-0.057C0.125,-0.063 0.119,-0.07 0.115,-0.079C0.111,-0.088 0.108,-0.097 0.108,-0.105C0.108,-0.13 0.119,-0.151 0.14,-0.168C0.161,-0.185 0.197,-0.199 0.248,-0.209L0.248,-0.092Z" style="fill-rule:nonzero;stroke:white;stroke-width:0.02px;"/>
                    </g>
                    <g transform="matrix(32,0,0,32,-49.9844,57.6)">
                        <path d="M0.074,-0.127C0.073,-0.076 0.082,-0.04 0.101,-0.02C0.119,0.001 0.145,0.011 0.178,0.011C0.205,0.011 0.23,0.005 0.253,-0.008C0.276,-0.021 0.295,-0.038 0.31,-0.061L0.3,-0.087C0.3,-0.087 0.296,-0.084 0.288,-0.079C0.281,-0.074 0.272,-0.07 0.261,-0.066C0.251,-0.062 0.24,-0.06 0.229,-0.06C0.212,-0.06 0.198,-0.063 0.188,-0.068C0.178,-0.074 0.17,-0.084 0.165,-0.098C0.16,-0.112 0.158,-0.131 0.158,-0.156L0.159,-0.372L0.294,-0.372L0.298,-0.415L0.16,-0.415L0.16,-0.531L0.134,-0.531C0.117,-0.507 0.097,-0.483 0.076,-0.459C0.054,-0.435 0.034,-0.415 0.014,-0.399L0.014,-0.373L0.076,-0.373L0.074,-0.127Z" style="fill-rule:nonzero;stroke:white;stroke-width:0.02px;"/>
                    </g>
                    <g transform="matrix(32,0,0,32,-39.8438,57.6)">
                        <path d="M0.134,-0.522C0.145,-0.522 0.155,-0.525 0.164,-0.531C0.173,-0.536 0.18,-0.543 0.186,-0.552C0.191,-0.561 0.194,-0.571 0.194,-0.582C0.194,-0.598 0.188,-0.611 0.176,-0.622C0.165,-0.632 0.151,-0.638 0.134,-0.638C0.119,-0.638 0.105,-0.632 0.094,-0.622C0.082,-0.611 0.076,-0.598 0.076,-0.583C0.076,-0.572 0.079,-0.562 0.084,-0.553C0.089,-0.544 0.096,-0.536 0.105,-0.531C0.114,-0.525 0.124,-0.522 0.134,-0.522ZM0.252,-0L0.258,-0.039L0.18,-0.057L0.18,-0.42L0.167,-0.432L0.03,-0.421L0.024,-0.384L0.098,-0.357L0.098,-0.057L0.024,-0.039L0.018,-0L0.252,-0Z" style="fill-rule:nonzero;stroke:white;stroke-width:0.02px;"/>
                    </g>
                    <g transform="matrix(32,0,0,32,-31.4219,57.6)">
                        <path d="M0.057,-0.369L0.192,0.014L0.254,0.005L0.388,-0.37L0.44,-0.39L0.446,-0.426L0.259,-0.426L0.252,-0.39L0.331,-0.369L0.237,-0.095L0.146,-0.37L0.216,-0.39L0.22,-0.426L0.002,-0.426L-0.003,-0.39L0.057,-0.369Z" style="fill-rule:nonzero;stroke:white;stroke-width:0.02px;"/>
                    </g>
                    <g transform="matrix(32,0,0,32,-17.2969,57.6)">
                        <path d="M0.209,0.015C0.241,0.015 0.271,0.009 0.299,-0.003C0.327,-0.014 0.351,-0.03 0.37,-0.051L0.36,-0.077C0.344,-0.068 0.33,-0.062 0.318,-0.058C0.306,-0.054 0.295,-0.052 0.286,-0.051C0.277,-0.05 0.265,-0.05 0.249,-0.05C0.22,-0.05 0.196,-0.058 0.176,-0.074C0.156,-0.091 0.141,-0.112 0.13,-0.138C0.12,-0.163 0.114,-0.19 0.113,-0.217L0.349,-0.22C0.351,-0.229 0.353,-0.24 0.354,-0.253C0.356,-0.266 0.357,-0.276 0.357,-0.284C0.357,-0.317 0.351,-0.345 0.34,-0.368C0.328,-0.392 0.312,-0.409 0.292,-0.421C0.273,-0.433 0.251,-0.439 0.227,-0.439C0.194,-0.439 0.162,-0.43 0.131,-0.411C0.1,-0.393 0.075,-0.366 0.055,-0.331C0.036,-0.296 0.026,-0.256 0.026,-0.209C0.026,-0.162 0.035,-0.121 0.052,-0.087C0.069,-0.054 0.092,-0.028 0.12,-0.011C0.148,0.006 0.178,0.015 0.209,0.015ZM0.203,-0.391C0.248,-0.391 0.27,-0.361 0.27,-0.3C0.27,-0.295 0.27,-0.289 0.269,-0.282C0.269,-0.275 0.268,-0.27 0.267,-0.267L0.114,-0.255C0.115,-0.285 0.121,-0.31 0.13,-0.331C0.139,-0.351 0.15,-0.366 0.163,-0.376C0.176,-0.386 0.189,-0.391 0.203,-0.391Z" style="fill-rule:nonzero;stroke:white;stroke-width:0.02px;"/>
                    </g>
                    <g transform="matrix(32,0,0,32,0,57.6)">
                        <path d="M0.113,-0.55L0.113,-0.059L0.032,-0.036L0.028,-0L0.292,-0L0.298,-0.039L0.208,-0.056L0.208,-0.288L0.515,-0.288L0.515,-0.059L0.434,-0.036L0.429,-0L0.694,-0L0.699,-0.039L0.61,-0.056L0.61,-0.552L0.691,-0.57L0.697,-0.607L0.431,-0.607L0.425,-0.57L0.515,-0.55L0.515,-0.338L0.208,-0.338L0.208,-0.552L0.291,-0.57L0.295,-0.607L0.03,-0.607L0.024,-0.57L0.113,-0.55Z" style="fill-rule:nonzero;stroke:white;stroke-width:0.02px;"/>
                    </g>
                    <g transform="matrix(32,0,0,32,22.125,57.6)">
                        <path d="M0.226,0.013C0.264,0.013 0.298,0.004 0.33,-0.016C0.361,-0.035 0.385,-0.062 0.404,-0.097C0.422,-0.132 0.431,-0.171 0.431,-0.215C0.431,-0.26 0.423,-0.299 0.407,-0.333C0.392,-0.367 0.37,-0.394 0.341,-0.413C0.311,-0.431 0.277,-0.441 0.238,-0.441C0.201,-0.441 0.166,-0.432 0.134,-0.413C0.101,-0.395 0.075,-0.368 0.055,-0.332C0.035,-0.297 0.025,-0.256 0.025,-0.208C0.025,-0.166 0.033,-0.128 0.049,-0.094C0.065,-0.061 0.088,-0.035 0.118,-0.016C0.148,0.004 0.184,0.013 0.226,0.013ZM0.217,-0.39C0.246,-0.39 0.27,-0.379 0.289,-0.358C0.308,-0.336 0.322,-0.309 0.331,-0.277C0.339,-0.244 0.344,-0.21 0.344,-0.175C0.344,-0.151 0.34,-0.128 0.333,-0.107C0.325,-0.085 0.314,-0.068 0.298,-0.054C0.283,-0.041 0.264,-0.034 0.243,-0.034C0.212,-0.034 0.188,-0.044 0.168,-0.064C0.148,-0.084 0.134,-0.11 0.125,-0.141C0.117,-0.173 0.112,-0.207 0.112,-0.243C0.112,-0.269 0.116,-0.294 0.124,-0.316C0.131,-0.338 0.143,-0.356 0.158,-0.37C0.174,-0.383 0.194,-0.39 0.217,-0.39Z" style="fill-rule:nonzero;stroke:white;stroke-width:0.02px;"/>
                    </g>
                    <g transform="matrix(32,0,0,32,36.7188,57.6)">
                        <path d="M0.251,-0.039L0.182,-0.056L0.182,-0.329C0.194,-0.342 0.208,-0.353 0.225,-0.36C0.242,-0.367 0.26,-0.371 0.278,-0.371C0.293,-0.371 0.308,-0.368 0.32,-0.36C0.333,-0.353 0.343,-0.343 0.35,-0.33C0.358,-0.317 0.361,-0.302 0.361,-0.286L0.361,-0.056L0.297,-0.036L0.292,-0L0.508,-0L0.513,-0.039L0.441,-0.056L0.441,-0.322C0.455,-0.338 0.469,-0.35 0.484,-0.358C0.498,-0.367 0.515,-0.371 0.534,-0.371C0.56,-0.371 0.58,-0.363 0.594,-0.347C0.609,-0.33 0.616,-0.31 0.616,-0.286L0.616,-0.055L0.555,-0.036L0.552,-0L0.759,-0L0.766,-0.039L0.698,-0.056L0.698,-0.297C0.698,-0.388 0.66,-0.434 0.583,-0.434C0.554,-0.434 0.527,-0.426 0.502,-0.412C0.477,-0.397 0.456,-0.379 0.439,-0.357L0.433,-0.357C0.426,-0.385 0.412,-0.405 0.392,-0.418C0.372,-0.431 0.35,-0.438 0.325,-0.438C0.297,-0.438 0.269,-0.43 0.243,-0.416C0.218,-0.401 0.196,-0.383 0.179,-0.361L0.174,-0.361L0.183,-0.423L0.174,-0.433L0.026,-0.413L0.021,-0.376L0.099,-0.351L0.099,-0.056L0.026,-0.036L0.021,-0L0.246,-0L0.251,-0.039Z" style="fill-rule:nonzero;stroke:white;stroke-width:0.02px;"/>
                    </g>
                    <g transform="matrix(32,0,0,32,61.4688,57.6)">
                        <path d="M0.209,0.015C0.241,0.015 0.271,0.009 0.299,-0.003C0.327,-0.014 0.351,-0.03 0.37,-0.051L0.36,-0.077C0.344,-0.068 0.33,-0.062 0.318,-0.058C0.306,-0.054 0.295,-0.052 0.286,-0.051C0.277,-0.05 0.265,-0.05 0.249,-0.05C0.22,-0.05 0.196,-0.058 0.176,-0.074C0.156,-0.091 0.141,-0.112 0.13,-0.138C0.12,-0.163 0.114,-0.19 0.113,-0.217L0.349,-0.22C0.351,-0.229 0.353,-0.24 0.354,-0.253C0.356,-0.266 0.357,-0.276 0.357,-0.284C0.357,-0.317 0.351,-0.345 0.34,-0.368C0.328,-0.392 0.312,-0.409 0.292,-0.421C0.273,-0.433 0.251,-0.439 0.227,-0.439C0.194,-0.439 0.162,-0.43 0.131,-0.411C0.1,-0.393 0.075,-0.366 0.055,-0.331C0.036,-0.296 0.026,-0.256 0.026,-0.209C0.026,-0.162 0.035,-0.121 0.052,-0.087C0.069,-0.054 0.092,-0.028 0.12,-0.011C0.148,0.006 0.178,0.015 0.209,0.015ZM0.203,-0.391C0.248,-0.391 0.27,-0.361 0.27,-0.3C0.27,-0.295 0.27,-0.289 0.269,-0.282C0.269,-0.275 0.268,-0.27 0.267,-0.267L0.114,-0.255C0.115,-0.285 0.121,-0.31 0.13,-0.331C0.139,-0.351 0.15,-0.366 0.163,-0.376C0.176,-0.386 0.189,-0.391 0.203,-0.391Z" style="fill-rule:nonzero;stroke:white;stroke-width:0.02px;"/>
                    </g>
                    <g transform="matrix(32,0,0,32,74,57.6)">
                        <path d="M0.166,0.017C0.191,0.017 0.215,0.011 0.239,0C0.262,-0.01 0.281,-0.025 0.295,-0.044C0.309,-0.063 0.316,-0.084 0.316,-0.107C0.316,-0.129 0.311,-0.149 0.299,-0.165C0.288,-0.182 0.274,-0.196 0.258,-0.208C0.242,-0.219 0.221,-0.232 0.195,-0.246C0.173,-0.258 0.157,-0.268 0.145,-0.276C0.132,-0.285 0.122,-0.294 0.114,-0.304C0.106,-0.315 0.102,-0.327 0.102,-0.34C0.102,-0.356 0.107,-0.37 0.117,-0.381C0.127,-0.393 0.14,-0.398 0.157,-0.398C0.176,-0.398 0.192,-0.389 0.205,-0.371C0.218,-0.352 0.227,-0.325 0.233,-0.288C0.254,-0.289 0.271,-0.295 0.283,-0.307C0.295,-0.319 0.301,-0.334 0.301,-0.353C0.301,-0.369 0.296,-0.384 0.286,-0.397C0.276,-0.41 0.262,-0.42 0.244,-0.428C0.226,-0.436 0.205,-0.439 0.182,-0.439C0.151,-0.439 0.124,-0.433 0.102,-0.42C0.08,-0.406 0.064,-0.39 0.053,-0.37C0.042,-0.35 0.036,-0.33 0.036,-0.31C0.036,-0.287 0.042,-0.266 0.054,-0.248C0.066,-0.23 0.08,-0.215 0.097,-0.203C0.114,-0.191 0.135,-0.177 0.162,-0.162C0.182,-0.151 0.197,-0.141 0.208,-0.134C0.219,-0.127 0.228,-0.119 0.235,-0.11C0.242,-0.101 0.246,-0.091 0.246,-0.081C0.246,-0.064 0.24,-0.051 0.228,-0.043C0.215,-0.035 0.2,-0.031 0.181,-0.031C0.161,-0.031 0.142,-0.039 0.125,-0.055C0.109,-0.072 0.095,-0.096 0.084,-0.127C0.066,-0.126 0.051,-0.119 0.041,-0.106C0.03,-0.093 0.024,-0.077 0.024,-0.059C0.024,-0.046 0.03,-0.034 0.042,-0.022C0.054,-0.01 0.07,-0.001 0.092,0.006C0.113,0.013 0.138,0.017 0.166,0.017Z" style="fill-rule:nonzero;stroke:white;stroke-width:0.02px;"/>
                    </g>
                    <g transform="matrix(32,0,0,32,84.8906,57.6)">
                        <path d="M0.074,-0.127C0.073,-0.076 0.082,-0.04 0.101,-0.02C0.119,0.001 0.145,0.011 0.178,0.011C0.205,0.011 0.23,0.005 0.253,-0.008C0.276,-0.021 0.295,-0.038 0.31,-0.061L0.3,-0.087C0.3,-0.087 0.296,-0.084 0.288,-0.079C0.281,-0.074 0.272,-0.07 0.261,-0.066C0.251,-0.062 0.24,-0.06 0.229,-0.06C0.212,-0.06 0.198,-0.063 0.188,-0.068C0.178,-0.074 0.17,-0.084 0.165,-0.098C0.16,-0.112 0.158,-0.131 0.158,-0.156L0.159,-0.372L0.294,-0.372L0.298,-0.415L0.16,-0.415L0.16,-0.531L0.134,-0.531C0.117,-0.507 0.097,-0.483 0.076,-0.459C0.054,-0.435 0.034,-0.415 0.014,-0.399L0.014,-0.373L0.076,-0.373L0.074,-0.127Z" style="fill-rule:nonzero;stroke:white;stroke-width:0.02px;"/>
                    </g>
                    <g transform="matrix(32,0,0,32,95.0312,57.6)">
                        <path d="M0.209,0.015C0.241,0.015 0.271,0.009 0.299,-0.003C0.327,-0.014 0.351,-0.03 0.37,-0.051L0.36,-0.077C0.344,-0.068 0.33,-0.062 0.318,-0.058C0.306,-0.054 0.295,-0.052 0.286,-0.051C0.277,-0.05 0.265,-0.05 0.249,-0.05C0.22,-0.05 0.196,-0.058 0.176,-0.074C0.156,-0.091 0.141,-0.112 0.13,-0.138C0.12,-0.163 0.114,-0.19 0.113,-0.217L0.349,-0.22C0.351,-0.229 0.353,-0.24 0.354,-0.253C0.356,-0.266 0.357,-0.276 0.357,-0.284C0.357,-0.317 0.351,-0.345 0.34,-0.368C0.328,-0.392 0.312,-0.409 0.292,-0.421C0.273,-0.433 0.251,-0.439 0.227,-0.439C0.194,-0.439 0.162,-0.43 0.131,-0.411C0.1,-0.393 0.075,-0.366 0.055,-0.331C0.036,-0.296 0.026,-0.256 0.026,-0.209C0.026,-0.162 0.035,-0.121 0.052,-0.087C0.069,-0.054 0.092,-0.028 0.12,-0.011C0.148,0.006 0.178,0.015 0.209,0.015ZM0.203,-0.391C0.248,-0.391 0.27,-0.361 0.27,-0.3C0.27,-0.295 0.27,-0.289 0.269,-0.282C0.269,-0.275 0.268,-0.27 0.267,-0.267L0.114,-0.255C0.115,-0.285 0.121,-0.31 0.13,-0.331C0.139,-0.351 0.15,-0.366 0.163,-0.376C0.176,-0.386 0.189,-0.391 0.203,-0.391Z" style="fill-rule:nonzero;stroke:white;stroke-width:0.02px;"/>
                    </g>
                    <g transform="matrix(32,0,0,32,107.562,57.6)">
                        <path d="M0.119,0.012C0.154,0.012 0.183,0.004 0.205,-0.012C0.227,-0.029 0.243,-0.046 0.252,-0.064L0.258,-0.064L0.258,-0.057C0.258,-0.046 0.26,-0.036 0.265,-0.026C0.27,-0.016 0.279,-0.007 0.29,-0.001C0.301,0.006 0.316,0.009 0.333,0.009C0.347,0.009 0.362,0.007 0.377,0.003C0.388,0.001 0.395,0 0.4,-0L0.406,-0.042L0.382,-0.047C0.367,-0.049 0.355,-0.053 0.347,-0.057C0.34,-0.062 0.334,-0.068 0.332,-0.076C0.329,-0.085 0.327,-0.097 0.327,-0.112L0.327,-0.29C0.327,-0.342 0.318,-0.38 0.299,-0.404C0.28,-0.427 0.25,-0.439 0.207,-0.439C0.184,-0.439 0.159,-0.435 0.133,-0.425C0.106,-0.416 0.084,-0.403 0.066,-0.388C0.049,-0.372 0.04,-0.356 0.04,-0.339C0.04,-0.318 0.046,-0.305 0.059,-0.298C0.072,-0.292 0.088,-0.289 0.107,-0.289C0.11,-0.322 0.113,-0.345 0.115,-0.357C0.117,-0.369 0.122,-0.379 0.128,-0.385C0.135,-0.391 0.146,-0.394 0.162,-0.394C0.193,-0.394 0.215,-0.382 0.228,-0.357C0.241,-0.333 0.248,-0.301 0.248,-0.264L0.248,-0.237C0.197,-0.233 0.155,-0.224 0.121,-0.209C0.088,-0.194 0.063,-0.175 0.047,-0.153C0.031,-0.131 0.023,-0.107 0.023,-0.082C0.023,-0.063 0.027,-0.046 0.036,-0.032C0.045,-0.018 0.056,-0.007 0.071,0C0.085,0.008 0.101,0.012 0.119,0.012ZM0.248,-0.092C0.238,-0.081 0.226,-0.071 0.21,-0.062C0.194,-0.053 0.179,-0.048 0.163,-0.048C0.152,-0.048 0.142,-0.051 0.134,-0.057C0.125,-0.063 0.119,-0.07 0.115,-0.079C0.111,-0.088 0.108,-0.097 0.108,-0.105C0.108,-0.13 0.119,-0.151 0.14,-0.168C0.161,-0.185 0.197,-0.199 0.248,-0.209L0.248,-0.092Z" style="fill-rule:nonzero;stroke:white;stroke-width:0.02px;"/>
                    </g>
                    <g transform="matrix(32,0,0,32,120.531,57.6)">
                        <path d="M0.186,0.01C0.216,0.01 0.243,0.003 0.264,-0.01C0.286,-0.024 0.305,-0.042 0.321,-0.064L0.325,-0.064L0.325,-0.061C0.325,-0.039 0.331,-0.022 0.344,-0.009C0.357,0.005 0.375,0.011 0.398,0.011C0.413,0.011 0.425,0.011 0.434,0.01C0.443,0.008 0.455,0.006 0.47,0.002L0.475,-0.039L0.453,-0.043C0.439,-0.047 0.429,-0.05 0.422,-0.052C0.415,-0.055 0.41,-0.061 0.406,-0.069C0.402,-0.077 0.4,-0.089 0.4,-0.105L0.4,-0.621L0.39,-0.632L0.254,-0.621L0.247,-0.584L0.321,-0.557L0.321,-0.48L0.327,-0.418L0.324,-0.418C0.316,-0.424 0.304,-0.429 0.288,-0.433C0.272,-0.437 0.256,-0.439 0.24,-0.439C0.206,-0.439 0.172,-0.429 0.139,-0.407C0.106,-0.386 0.079,-0.356 0.058,-0.319C0.037,-0.281 0.026,-0.24 0.026,-0.195C0.026,-0.152 0.033,-0.114 0.048,-0.083C0.062,-0.053 0.081,-0.029 0.105,-0.013C0.129,0.002 0.156,0.01 0.186,0.01ZM0.216,-0.392C0.234,-0.392 0.252,-0.386 0.272,-0.374C0.292,-0.361 0.308,-0.345 0.321,-0.325L0.321,-0.096C0.311,-0.085 0.297,-0.075 0.278,-0.065C0.258,-0.056 0.239,-0.051 0.22,-0.051C0.199,-0.051 0.181,-0.058 0.165,-0.071C0.148,-0.084 0.135,-0.104 0.126,-0.13C0.117,-0.156 0.112,-0.188 0.112,-0.226C0.112,-0.276 0.121,-0.316 0.137,-0.346C0.154,-0.377 0.18,-0.392 0.216,-0.392Z" style="fill-rule:nonzero;stroke:white;stroke-width:0.02px;"/>
                    </g>
                    <g transform="matrix(32,0,0,32,11.3281,115.2)">
                        <path d="M0.216,-0L0.221,-0.039L0.13,-0.061L0.18,-0.211L0.384,-0.211L0.438,-0.063L0.354,-0.036L0.348,-0L0.6,-0L0.604,-0.039L0.537,-0.061L0.347,-0.619L0.273,-0.604L0.064,-0.063L-0.008,-0.036L-0.013,-0L0.216,-0ZM0.289,-0.505L0.37,-0.261L0.198,-0.261L0.289,-0.505Z" style="fill-rule:nonzero;stroke:white;stroke-width:0.02px;"/>
                    </g>
                    <g transform="matrix(32,0,0,32,31.2969,115.2)">
                        <path d="M0.238,-0L0.244,-0.039L0.167,-0.057L0.167,-0.623L0.154,-0.634L0.014,-0.624L0.008,-0.586L0.085,-0.56L0.085,-0.057L0.01,-0.039L0.005,-0L0.238,-0Z" style="fill-rule:nonzero;stroke:white;stroke-width:0.02px;"/>
                    </g>
                    <g transform="matrix(32,0,0,32,39.2656,115.2)">
                        <path d="M0.238,-0L0.244,-0.039L0.167,-0.057L0.167,-0.623L0.154,-0.634L0.014,-0.624L0.008,-0.586L0.085,-0.56L0.085,-0.057L0.01,-0.039L0.005,-0L0.238,-0Z" style="fill-rule:nonzero;stroke:white;stroke-width:0.02px;"/>
                    </g>
                    <g transform="matrix(32,0,0,32,47.2344,115.2)">
                        <path d="M0.226,0.013C0.264,0.013 0.298,0.004 0.33,-0.016C0.361,-0.035 0.385,-0.062 0.404,-0.097C0.422,-0.132 0.431,-0.171 0.431,-0.215C0.431,-0.26 0.423,-0.299 0.407,-0.333C0.392,-0.367 0.37,-0.394 0.341,-0.413C0.311,-0.431 0.277,-0.441 0.238,-0.441C0.201,-0.441 0.166,-0.432 0.134,-0.413C0.101,-0.395 0.075,-0.368 0.055,-0.332C0.035,-0.297 0.025,-0.256 0.025,-0.208C0.025,-0.166 0.033,-0.128 0.049,-0.094C0.065,-0.061 0.088,-0.035 0.118,-0.016C0.148,0.004 0.184,0.013 0.226,0.013ZM0.217,-0.39C0.246,-0.39 0.27,-0.379 0.289,-0.358C0.308,-0.336 0.322,-0.309 0.331,-0.277C0.339,-0.244 0.344,-0.21 0.344,-0.175C0.344,-0.151 0.34,-0.128 0.333,-0.107C0.325,-0.085 0.314,-0.068 0.298,-0.054C0.283,-0.041 0.264,-0.034 0.243,-0.034C0.212,-0.034 0.188,-0.044 0.168,-0.064C0.148,-0.084 0.134,-0.11 0.125,-0.141C0.117,-0.173 0.112,-0.207 0.112,-0.243C0.112,-0.269 0.116,-0.294 0.124,-0.316C0.131,-0.338 0.143,-0.356 0.158,-0.37C0.174,-0.383 0.194,-0.39 0.217,-0.39Z" style="fill-rule:nonzero;stroke:white;stroke-width:0.02px;"/>
                    </g>
                    <g transform="matrix(32,0,0,32,61.8281,115.2)">
                        <path d="M0.074,-0.127C0.073,-0.076 0.082,-0.04 0.101,-0.02C0.119,0.001 0.145,0.011 0.178,0.011C0.205,0.011 0.23,0.005 0.253,-0.008C0.276,-0.021 0.295,-0.038 0.31,-0.061L0.3,-0.087C0.3,-0.087 0.296,-0.084 0.288,-0.079C0.281,-0.074 0.272,-0.07 0.261,-0.066C0.251,-0.062 0.24,-0.06 0.229,-0.06C0.212,-0.06 0.198,-0.063 0.188,-0.068C0.178,-0.074 0.17,-0.084 0.165,-0.098C0.16,-0.112 0.158,-0.131 0.158,-0.156L0.159,-0.372L0.294,-0.372L0.298,-0.415L0.16,-0.415L0.16,-0.531L0.134,-0.531C0.117,-0.507 0.097,-0.483 0.076,-0.459C0.054,-0.435 0.034,-0.415 0.014,-0.399L0.014,-0.373L0.076,-0.373L0.074,-0.127Z" style="fill-rule:nonzero;stroke:white;stroke-width:0.02px;"/>
                    </g>
                    <g transform="matrix(32,0,0,32,71.9688,115.2)">
                        <path d="M0.251,-0.039L0.182,-0.056L0.182,-0.329C0.194,-0.342 0.208,-0.353 0.225,-0.36C0.242,-0.367 0.26,-0.371 0.278,-0.371C0.293,-0.371 0.308,-0.368 0.32,-0.36C0.333,-0.353 0.343,-0.343 0.35,-0.33C0.358,-0.317 0.361,-0.302 0.361,-0.286L0.361,-0.056L0.297,-0.036L0.292,-0L0.508,-0L0.513,-0.039L0.441,-0.056L0.441,-0.322C0.455,-0.338 0.469,-0.35 0.484,-0.358C0.498,-0.367 0.515,-0.371 0.534,-0.371C0.56,-0.371 0.58,-0.363 0.594,-0.347C0.609,-0.33 0.616,-0.31 0.616,-0.286L0.616,-0.055L0.555,-0.036L0.552,-0L0.759,-0L0.766,-0.039L0.698,-0.056L0.698,-0.297C0.698,-0.388 0.66,-0.434 0.583,-0.434C0.554,-0.434 0.527,-0.426 0.502,-0.412C0.477,-0.397 0.456,-0.379 0.439,-0.357L0.433,-0.357C0.426,-0.385 0.412,-0.405 0.392,-0.418C0.372,-0.431 0.35,-0.438 0.325,-0.438C0.297,-0.438 0.269,-0.43 0.243,-0.416C0.218,-0.401 0.196,-0.383 0.179,-0.361L0.174,-0.361L0.183,-0.423L0.174,-0.433L0.026,-0.413L0.021,-0.376L0.099,-0.351L0.099,-0.056L0.026,-0.036L0.021,-0L0.246,-0L0.251,-0.039Z" style="fill-rule:nonzero;stroke:white;stroke-width:0.02px;"/>
                    </g>
                    <g transform="matrix(32,0,0,32,96.7188,115.2)">
                        <path d="M0.209,0.015C0.241,0.015 0.271,0.009 0.299,-0.003C0.327,-0.014 0.351,-0.03 0.37,-0.051L0.36,-0.077C0.344,-0.068 0.33,-0.062 0.318,-0.058C0.306,-0.054 0.295,-0.052 0.286,-0.051C0.277,-0.05 0.265,-0.05 0.249,-0.05C0.22,-0.05 0.196,-0.058 0.176,-0.074C0.156,-0.091 0.141,-0.112 0.13,-0.138C0.12,-0.163 0.114,-0.19 0.113,-0.217L0.349,-0.22C0.351,-0.229 0.353,-0.24 0.354,-0.253C0.356,-0.266 0.357,-0.276 0.357,-0.284C0.357,-0.317 0.351,-0.345 0.34,-0.368C0.328,-0.392 0.312,-0.409 0.292,-0.421C0.273,-0.433 0.251,-0.439 0.227,-0.439C0.194,-0.439 0.162,-0.43 0.131,-0.411C0.1,-0.393 0.075,-0.366 0.055,-0.331C0.036,-0.296 0.026,-0.256 0.026,-0.209C0.026,-0.162 0.035,-0.121 0.052,-0.087C0.069,-0.054 0.092,-0.028 0.12,-0.011C0.148,0.006 0.178,0.015 0.209,0.015ZM0.203,-0.391C0.248,-0.391 0.27,-0.361 0.27,-0.3C0.27,-0.295 0.27,-0.289 0.269,-0.282C0.269,-0.275 0.268,-0.27 0.267,-0.267L0.114,-0.255C0.115,-0.285 0.121,-0.31 0.13,-0.331C0.139,-0.351 0.15,-0.366 0.163,-0.376C0.176,-0.386 0.189,-0.391 0.203,-0.391Z" style="fill-rule:nonzero;stroke:white;stroke-width:0.02px;"/>
                    </g>
                    <g transform="matrix(32,0,0,32,109.25,115.2)">
                        <path d="M0.251,-0.039L0.179,-0.056L0.179,-0.33C0.191,-0.343 0.205,-0.353 0.222,-0.361C0.239,-0.368 0.257,-0.372 0.275,-0.372C0.301,-0.372 0.321,-0.364 0.337,-0.349C0.352,-0.335 0.36,-0.312 0.36,-0.282L0.36,-0.056L0.292,-0.036L0.288,-0L0.507,-0L0.512,-0.039L0.441,-0.056L0.441,-0.301C0.441,-0.345 0.431,-0.379 0.411,-0.403C0.391,-0.427 0.362,-0.439 0.324,-0.439C0.295,-0.439 0.268,-0.432 0.243,-0.417C0.217,-0.402 0.195,-0.384 0.177,-0.362L0.172,-0.362L0.18,-0.424L0.172,-0.434L0.026,-0.415L0.021,-0.377L0.097,-0.352L0.097,-0.056L0.023,-0.036L0.018,-0L0.245,-0L0.251,-0.039Z" style="fill-rule:nonzero;stroke:white;stroke-width:0.02px;"/>
                    </g>
                    <g transform="matrix(32,0,0,32,125.812,115.2)">
                        <path d="M0.074,-0.127C0.073,-0.076 0.082,-0.04 0.101,-0.02C0.119,0.001 0.145,0.011 0.178,0.011C0.205,0.011 0.23,0.005 0.253,-0.008C0.276,-0.021 0.295,-0.038 0.31,-0.061L0.3,-0.087C0.3,-0.087 0.296,-0.084 0.288,-0.079C0.281,-0.074 0.272,-0.07 0.261,-0.066C0.251,-0.062 0.24,-0.06 0.229,-0.06C0.212,-0.06 0.198,-0.063 0.188,-0.068C0.178,-0.074 0.17,-0.084 0.165,-0.098C0.16,-0.112 0.158,-0.131 0.158,-0.156L0.159,-0.372L0.294,-0.372L0.298,-0.415L0.16,-0.415L0.16,-0.531L0.134,-0.531C0.117,-0.507 0.097,-0.483 0.076,-0.459C0.054,-0.435 0.034,-0.415 0.014,-0.399L0.014,-0.373L0.076,-0.373L0.074,-0.127Z" style="fill-rule:nonzero;stroke:white;stroke-width:0.02px;"/>
                    </g>
                </g>
            </g>
        </g>
    </g>
</svg>
